<svg xmlns="http://www.w3.org/2000/svg" width="78" height="80" viewBox="0 0 78 80" fill="none">
<path d="M36.6917 11.4002L36.7573 0L40.3455 7.34287C40.5205 7.71773 40.7831 8.02644 41.1332 8.24695L65.463 22.3373C66.8851 23.1311 67.5634 24.1896 67.5853 25.4906V36.3174H64.544V27.2987C64.544 26.549 64.3034 25.4906 63.1875 24.6085L41.3301 11.4443C40.1486 10.7387 38.3107 10.5402 36.6917 11.4002Z" fill="#ffffff"/>
<path d="M41.3081 68.5999L41.2206 80L37.6324 72.6572C37.4573 72.2823 37.1948 71.9736 36.8447 71.7531L12.5149 57.6627C11.0927 56.8689 10.4145 55.8105 10.3926 54.5095V43.6826H13.4338V52.7013C13.4338 53.4511 13.6745 54.5095 14.7903 55.3915L36.6478 68.5558C37.8511 69.2393 39.689 69.4598 41.3081 68.5999Z" fill="#ffffff"/>
<path d="M64.457 38.0151H78.0004L67.6733 42.4914L67.5858 53.2301C67.5858 55.0823 66.7106 56.6479 64.8509 57.8828L43.5623 70.7383L42.709 71.2455V67.6512L62.5754 55.6998C63.8225 54.9721 64.4133 53.8255 64.3695 52.2378L64.457 38.0151Z" fill="#ffffff"/>
<path d="M13.5433 42.0507H0L10.327 37.5744L10.4146 26.8358C10.4146 24.9835 11.2897 23.4179 13.1495 22.1831L34.4381 9.32755L35.3133 8.79834V12.4146L15.4468 24.3661C14.1997 25.0938 13.609 26.2404 13.6527 27.828L13.5433 42.0507Z" fill="#ffffff"/>
<path d="M38.7443 28H42V54H37.79V34.3278H33V31.5356C34.6091 31.3663 35.8316 30.9977 36.6674 30.4296C37.5156 29.8494 38.2079 29.0395 38.7443 28Z" fill="#ffffff"/>
</svg>