<svg xmlns="http://www.w3.org/2000/svg" width="78" height="80" viewBox="0 0 78 80" fill="none">
<path d="M36.6917 11.4002L36.7573 0L40.3455 7.34287C40.5205 7.71773 40.7831 8.02644 41.1332 8.24695L65.463 22.3373C66.8851 23.1311 67.5634 24.1896 67.5853 25.4906V36.3174H64.544V27.2987C64.544 26.549 64.3034 25.4906 63.1875 24.6085L41.3301 11.4443C40.1486 10.7387 38.3107 10.5402 36.6917 11.4002Z" fill="#ffffff"/>
<path d="M41.3081 68.5999L41.2206 80L37.6324 72.6572C37.4573 72.2823 37.1948 71.9736 36.8447 71.7531L12.5149 57.6627C11.0927 56.8689 10.4145 55.8105 10.3926 54.5095V43.6826H13.4338V52.7013C13.4338 53.4511 13.6745 54.5095 14.7903 55.3915L36.6478 68.5558C37.8511 69.2393 39.689 69.4598 41.3081 68.5999Z" fill="#ffffff"/>
<path d="M64.457 38.0151H78.0004L67.6733 42.4914L67.5858 53.2301C67.5858 55.0823 66.7106 56.6479 64.8509 57.8828L43.5623 70.7383L42.709 71.2455V67.6512L62.5754 55.6998C63.8225 54.9721 64.4133 53.8255 64.3695 52.2378L64.457 38.0151Z" fill="#ffffff"/>
<path d="M13.5433 42.0507H0L10.327 37.5744L10.4146 26.8358C10.4146 24.9835 11.2897 23.4179 13.1495 22.1831L34.4381 9.32755L35.3133 8.79834V12.4146L15.4468 24.3661C14.1997 25.0938 13.609 26.2404 13.6527 27.828L13.5433 42.0507Z" fill="#ffffff"/>
<path d="M47.1254 53.3157H30.2969C30.2969 51.7435 30.5326 50.319 31.004 49.0424C31.4753 47.7539 32.0881 46.6841 32.8424 45.833C33.6084 44.9819 34.4451 44.2017 35.3525 43.4925C36.2717 42.7832 37.185 42.139 38.0924 41.5597C38.9999 40.9687 39.8307 40.3895 40.5849 39.8221C41.3509 39.2546 41.9696 38.5927 42.441 37.8361C42.9124 37.0678 43.1481 36.2344 43.1481 35.336C43.1481 34.0475 42.7474 33.0309 41.946 32.2862C41.1565 31.5415 40.0487 31.1691 38.6227 31.1691C37.9275 31.1691 37.2734 31.2991 36.6606 31.5592C36.0596 31.8075 35.5882 32.1089 35.2464 32.4635C34.9165 32.8063 34.6219 33.155 34.3626 33.5097C34.1151 33.8643 33.9442 34.1716 33.85 34.4317L33.7262 34.8041L30.4736 33.3501C30.5208 33.1846 30.5856 32.9718 30.6681 32.7118C30.7624 32.4517 31.0098 31.9907 31.4105 31.3287C31.823 30.6667 32.3003 30.0816 32.8424 29.5733C33.3845 29.065 34.1681 28.5981 35.1934 28.1725C36.2187 27.747 37.3618 27.5342 38.6227 27.5342C41.1093 27.5342 43.1481 28.2848 44.739 29.7861C46.3299 31.2873 47.1254 33.1373 47.1254 35.336C47.1254 36.4945 46.8897 37.5702 46.4183 38.5631C45.9469 39.5561 45.3459 40.3895 44.6153 41.0632C43.8964 41.7252 43.0656 42.4108 42.1228 43.1201C41.1918 43.8175 40.2844 44.4559 39.4005 45.0351C38.5167 45.6143 37.6446 46.3117 36.7843 47.1274C35.9358 47.9312 35.2818 48.7823 34.8222 49.6807H47.1254V53.3157Z" fill="#ffffff"/>
</svg>