<svg xmlns="http://www.w3.org/2000/svg" width="78" height="80" viewBox="0 0 78 80" fill="none">
<path d="M36.6917 11.4002L36.7573 0L40.3455 7.34287C40.5205 7.71773 40.7831 8.02644 41.1332 8.24695L65.463 22.3373C66.8851 23.1311 67.5634 24.1896 67.5853 25.4906V36.3174H64.544V27.2987C64.544 26.549 64.3034 25.4906 63.1875 24.6085L41.3301 11.4443C40.1486 10.7387 38.3107 10.5402 36.6917 11.4002Z" fill="#ffffff"/>
<path d="M41.3081 68.5999L41.2206 80L37.6324 72.6572C37.4573 72.2823 37.1948 71.9736 36.8447 71.7531L12.5149 57.6627C11.0927 56.8689 10.4145 55.8105 10.3926 54.5095V43.6826H13.4338V52.7013C13.4338 53.4511 13.6745 54.5095 14.7903 55.3915L36.6478 68.5558C37.8511 69.2393 39.689 69.4598 41.3081 68.5999Z" fill="#ffffff"/>
<path d="M64.457 38.0151H78.0004L67.6733 42.4914L67.5858 53.2301C67.5858 55.0823 66.7106 56.6479 64.8509 57.8828L43.5623 70.7383L42.709 71.2455V67.6512L62.5754 55.6998C63.8225 54.9721 64.4133 53.8255 64.3695 52.2378L64.457 38.0151Z" fill="#ffffff"/>
<path d="M13.5433 42.0507H0L10.327 37.5744L10.4146 26.8358C10.4146 24.9835 11.2897 23.4179 13.1495 22.1831L34.4381 9.32755L35.3133 8.79834V12.4146L15.4468 24.3661C14.1997 25.0938 13.609 26.2404 13.6527 27.828L13.5433 42.0507Z" fill="#ffffff"/>
<path d="M42.9773 39.8752C43.0952 39.9225 43.2543 39.9935 43.4546 40.088C43.6667 40.1708 44.032 40.3835 44.5506 40.7264C45.0691 41.0573 45.5287 41.4415 45.9294 41.8789C46.3301 42.3163 46.6895 42.925 47.0077 43.7052C47.3376 44.4736 47.5026 45.3188 47.5026 46.2408C47.5026 48.3213 46.6718 50.0826 45.0102 51.5248C43.3603 52.9551 41.1743 53.6703 38.452 53.6703C37.2971 53.6703 36.2011 53.5343 35.1641 53.2625C34.127 52.9788 33.2667 52.6478 32.5832 52.2695C31.9115 51.8794 31.3282 51.4893 30.8332 51.0992C30.3382 50.7091 29.9788 50.3841 29.7549 50.124L29.4014 49.6807L31.9292 47.1451C31.9763 47.2161 32.0588 47.3224 32.1767 47.4643C32.3063 47.5943 32.5773 47.8307 32.9898 48.1735C33.4023 48.5045 33.8324 48.8001 34.2802 49.0601C34.7398 49.3084 35.3408 49.5389 36.0833 49.7516C36.8375 49.9526 37.6271 50.0531 38.452 50.0531C40.0194 50.0531 41.2568 49.6748 42.1642 48.9183C43.0716 48.1499 43.5253 47.1983 43.5253 46.0635C43.5253 44.9169 43.0716 43.9653 42.1642 43.2088C41.2568 42.4404 40.0194 42.0562 38.452 42.0562H35.9242V38.4213H38.452C39.7012 38.4213 40.6734 38.0962 41.3687 37.446C42.0758 36.7959 42.4293 35.9152 42.4293 34.8041C42.4293 33.6811 42.0758 32.7945 41.3687 32.1443C40.6734 31.4942 39.7012 31.1691 38.452 31.1691C37.3914 31.1691 36.3897 31.3996 35.4469 31.8606C34.5041 32.3217 33.8383 32.7649 33.4494 33.1905L32.8484 33.882L30.3029 31.3464C30.3736 31.2519 30.4797 31.1218 30.6211 30.9563C30.7743 30.779 31.1043 30.4658 31.611 30.0166C32.1177 29.5674 32.6598 29.1832 33.2373 28.864C33.8147 28.533 34.5748 28.2316 35.5176 27.9597C36.4604 27.676 37.4385 27.5342 38.452 27.5342C40.9386 27.5342 42.8889 28.1784 44.3031 29.4669C45.7173 30.7436 46.4243 32.3985 46.4243 34.4317C46.4243 35.1291 46.3006 35.8029 46.0531 36.4531C45.8174 37.0914 45.5287 37.6115 45.1869 38.0134C44.8452 38.4154 44.5093 38.7641 44.1793 39.0596C43.8612 39.3433 43.5783 39.5443 43.3309 39.6625L42.9773 39.8752Z" fill="#ffffff"/>
</svg>