<svg width="98" height="100" viewBox="0 0 98 100" fill="none" xmlns="http://www.w3.org/2000/svg">
<g id="Group">
<path id="Vector" d="M46.0737 14.2485L46.2038 0L50.7234 9.16205C50.951 9.65113 51.2761 10.0098 51.6988 10.3032L82.2629 27.91C84.0512 28.8882 84.8966 30.225 84.9291 31.8552V45.3864H81.0923V34.105C81.0923 33.192 80.7997 31.8552 79.4015 30.7467L51.9264 14.2811C50.4307 13.4333 48.1222 13.1725 46.0737 14.2485Z" fill="white"/>
<path id="Vector_2" d="M51.8939 85.7512L51.7963 99.9997L47.2767 90.8376C47.0491 90.3485 46.724 89.9899 46.3013 89.6964L15.7373 72.0896C13.9489 71.1115 13.1036 69.7747 13.071 68.1444V54.6133H16.9078V65.8947C16.9078 66.8076 17.2004 68.1444 18.5986 69.253L46.0737 85.7186C47.5694 86.5663 49.8454 86.8272 51.8939 85.7512Z" fill="white"/>
<g id="Group_2">
<path id="Vector_3" d="M19.1187 35.1812C19.1837 33.7792 19.8015 32.5402 21.2321 31.6925L46.3011 16.7267C47.9594 15.8138 50.0404 15.8138 51.7311 16.7267L76.8001 31.6925C78.2308 32.5728 78.8486 33.7792 78.9136 35.1812V64.8519C78.8486 66.2539 78.2308 67.4929 76.8001 68.3407L51.7311 83.339C50.0729 84.252 47.9919 84.252 46.3336 83.339L21.2972 68.3407C19.8665 67.4603 19.2487 66.2539 19.1837 63.7107V35.9963V35.1812H19.1187Z" fill="black"/>
</g>
<path id="Vector_4" d="M80.9947 47.5059H98L85.0265 53.1139L84.929 66.5147C84.929 68.8296 83.8235 70.7859 81.4824 72.3184L54.7551 88.3927L53.6821 89.0448V84.5453L78.6536 69.6122C80.2143 68.6992 80.9621 67.2646 80.9296 65.2757L80.9947 47.5059Z" fill="white"/>
<path id="Vector_5" d="M17.0053 52.5598H0L12.9735 46.9518L13.071 33.551C13.071 31.2361 14.1765 29.2798 16.5176 27.7473L43.2449 11.673L44.3179 10.9883V15.5204L19.3789 30.4536C17.8182 31.3665 17.0703 32.8011 17.1029 34.79L17.0053 52.5598Z" fill="white"/>
<path id="Vector_6" fill-rule="evenodd" clip-rule="evenodd" d="M19.9966 66.4169L64.3795 63.0586L34.4007 65.504L20.0291 66.1561C20.0291 66.2539 19.9966 66.3191 19.9966 66.4169Z" fill="black"/>
<g id="Mask Group">
<mask id="mask0_2_2585" style="mask-type:alpha" maskUnits="userSpaceOnUse" x="19" y="14" width="60" height="71">
<path id="Vector_7" d="M19.1187 35.1804C19.1837 33.7784 19.8015 32.5394 21.2321 31.6917L46.3011 16.7259C47.9594 15.813 51.3091 13.5868 52.9999 14.4997L76.8001 31.6917C78.2308 32.572 78.8486 33.7784 78.9136 35.1804V64.8511C78.8486 66.2531 78.2308 67.4921 76.8001 68.3399L51.7311 83.3382C50.0729 84.2512 47.9919 84.2512 46.3336 83.3382L21.2972 68.3399C19.8665 67.4595 19.2487 66.2531 19.1837 63.7099V35.9955V35.1804H19.1187Z" fill="black"/>
</mask>
<g mask="url(#mask0_2_2585)">
<g id="Group_3">
<g id="Group_4">
<path id="Vector_8" fill-rule="evenodd" clip-rule="evenodd" d="M60.1526 33.0609C60.2501 32.0175 60.5103 30.6807 60.2176 29.6373C60.0225 28.8874 59.8274 28.1701 59.6324 27.4528C59.1446 25.5943 58.5919 23.7358 58.1367 21.8773C57.8766 20.8339 57.3238 19.9862 57.2588 18.9428C56.4134 18.4212 55.8606 17.8343 55.1128 17.2474C54.9827 17.1496 54.9177 17.0517 54.8852 16.9539C54.4625 16.9213 54.0723 16.7583 53.6171 16.8887C53.3895 16.9539 53.1294 17.0517 52.9018 17.1169C52.8693 17.3126 52.7392 17.5082 52.4791 17.5734C52.414 17.606 52.3815 17.606 52.3165 17.6386C52.2515 17.6386 52.219 17.6712 52.1539 17.6712C52.1539 17.6712 52.1539 17.6712 52.1214 17.6712C51.0159 17.9647 49.9429 17.769 48.7724 17.606C48.6423 17.5734 48.4797 17.5734 48.3497 17.5734C47.927 17.7364 47.5043 17.8995 47.0491 18.0625C46.6589 18.2907 46.3012 18.519 45.9111 18.7798C45.9436 18.8776 45.9436 19.008 45.9111 19.1385C45.846 19.3667 45.7485 19.6275 45.5209 19.758C45.1632 19.9862 44.6755 19.758 44.5779 19.3667C44.5454 19.3015 44.5454 19.2037 44.5454 19.1385C42.2694 20.1818 39.9283 22.1055 37.5547 22.4642C37.0345 22.9207 36.5468 23.0837 35.994 23.4749C35.9615 23.5728 35.929 23.638 35.8965 23.7358C35.6038 24.6813 35.9615 25.2356 36.1566 26.1812C36.6443 28.6266 36.2866 31.4306 36.2866 33.9412C36.2866 34.3325 36.2866 34.7563 36.3842 35.1476C36.6443 36.0605 37.4572 36.6474 37.7498 37.5278C38.14 38.6363 38.6602 39.7123 39.213 40.7883C39.3105 41.0165 39.4406 41.2448 39.5381 41.473C39.7007 41.4404 39.8633 41.4404 39.9933 41.5382C40.6762 42.0599 40.6436 42.875 40.351 43.5923C40.2535 43.8206 40.0909 44.0162 39.8308 44.0488C39.7983 44.7661 39.7332 45.4834 39.7332 46.1681C39.7332 47.7332 39.7332 49.2982 39.7332 50.8959C39.7007 54.026 39.5706 57.1887 39.2455 60.3188C39.213 60.7426 39.1805 60.9057 38.9203 61.1665C38.8878 67.8832 38.4977 74.5346 38.3351 81.2839C44.5454 83.664 50.8858 87.5441 56.8686 81.1861C56.8686 81.1861 56.9336 77.5669 56.9336 75.741C56.9661 64.9813 55.3729 54.6129 54.8527 43.2337C54.8201 42.7446 54.9827 42.3859 55.2428 42.1577C55.2754 42.1251 55.2754 42.0925 55.3079 42.0599C55.2428 41.8643 55.2754 41.636 55.4379 41.473C55.6005 41.2448 55.7956 41.0491 55.9907 40.8209C56.0232 40.7883 56.0882 40.7231 56.1207 40.6905C56.4134 40.3644 56.706 40.0384 56.9661 39.6797C57.0312 39.6145 57.0962 39.5493 57.1612 39.5167C58.1692 38.4407 59.9575 37.3973 60.3477 35.8975C60.6078 34.8867 60.0551 34.0064 60.1526 33.0609Z" fill="white"/>
<path id="Vector_9" fill-rule="evenodd" clip-rule="evenodd" d="M36.0915 27.3555L36.059 30.453L36.0265 33.7787L35.994 35.4416L39.9283 42.4517L39.4731 47.962L38.3025 78.6108L38.6277 78.8064L40.2534 47.6359L40.7411 42.6147L46.4638 42.3865L40.8712 41.5061L40.8387 41.6366L37.0669 35.1155L36.9694 33.3549L36.8068 28.5945L37.5222 29.8335L37.8798 30.4204L38.7902 32.018L39.1154 32.5723L39.6356 33.4527L42.8546 32.1159L48.5772 32.7354L47.9269 37.8544L46.6914 38.1804L47.8944 38.213L48.187 38.8325V37.9196L49.8453 33.4201L53.422 33.1918L54.7225 33.8439L53.9097 32.5397L54.9501 30.1922L53.7146 31.2681H51.6661L48.5122 28.3663L49.0649 26.1165L58.3317 26.0513L60.1851 35.8328L54.5275 41.6692L54.9176 48.0272L56.9661 80.1758L58.3642 79.3281L55.9256 48.125L55.763 42.0604L61.7133 35.7676L59.8924 26.0187L59.7624 25.3666L59.2746 24.8123L58.8845 24.4862L58.6243 23.3451L58.4943 22.693L57.4213 18.4543L54.4949 16.5632L51.7312 16.9871L50.0404 16.7914L48.5447 16.335L45.8785 17.6392L45.0656 18.6499L43.5699 19.1064L40.0258 20.8345L39.5706 21.8126L39.0178 21.1931L35.8314 23.3451L35.1161 24.6819L35.051 25.5296L36.0915 27.3555ZM52.2839 18.5847L53.9747 17.574L56.1532 18.9108L57.8765 25.2036L52.3815 25.2362L52.0563 19.6281L52.2839 18.5847ZM46.6263 20.215L47.0165 18.8456L48.7073 17.9326L50.7232 19.139L51.9263 25.2688L48.5122 25.3014L47.9594 28.6923L50.6582 30.9747L51.4385 32.2463L48.7398 31.692L47.6668 31.3333L46.2687 21.4866L46.6263 20.215ZM41.0013 21.2257L43.4074 19.9541L45.1632 21.5844L46.984 31.529L46.8865 31.5616H42.8546L40.1234 22.9538L41.0013 21.2257ZM37.3271 22.8886L38.7252 22.0735L39.5706 23.5407L42.2368 31.7572L39.9933 32.6701L36.2216 25.5622L37.3271 22.8886Z" fill="black"/>
<path id="Vector_10" fill-rule="evenodd" clip-rule="evenodd" d="M54.3 78.4801C54.3 78.2519 53.7147 72.709 53.7147 72.709C53.7147 72.709 52.9669 78.904 52.9019 79.3604L54.3 78.4801Z" fill="black"/>
<path id="Vector_11" fill-rule="evenodd" clip-rule="evenodd" d="M49.5201 68.7309L50.1053 46.2007L49.2925 46.0703L49.5201 68.7309Z" fill="black"/>
<path id="Vector_12" fill-rule="evenodd" clip-rule="evenodd" d="M50.1054 67.2972L49.7152 78.6438L48.3821 45.4844L51.0158 45.8104L50.1054 67.2972Z" fill="black"/>
<path id="Vector_13" fill-rule="evenodd" clip-rule="evenodd" d="M40.3835 43.821L51.0159 41.8647L40.4161 40.9844L40.3835 43.821Z" fill="black"/>
<path id="Vector_14" fill-rule="evenodd" clip-rule="evenodd" d="M40.156 45.7122L45.0332 44.3428L40.156 44.5384V45.7122Z" fill="black"/>
<path id="Vector_15" fill-rule="evenodd" clip-rule="evenodd" d="M47.9595 28.6602L49.2926 33.2575L52.2189 32.1489L47.9595 28.6602Z" fill="black"/>
<path id="Vector_16" d="M47.9595 28.6602L49.2926 33.2575L52.2189 32.1489L47.9595 28.6602Z" stroke="#050109" stroke-width="0.216"/>
<path id="Vector_17" fill-rule="evenodd" clip-rule="evenodd" d="M40.156 22.9863L44.0578 31.5615L42.237 31.7245L40.156 22.9863Z" fill="black"/>
<path id="Vector_18" fill-rule="evenodd" clip-rule="evenodd" d="M52.089 19.6279L53.7148 25.7903L52.089 25.7251L51.4387 20.2474L52.089 19.6279Z" fill="black"/>
<path id="Vector_19" fill-rule="evenodd" clip-rule="evenodd" d="M39.6355 33.4526L41.0011 35.0829L48.5121 33.7787L48.6421 32.2136L42.887 31.5615L39.6355 33.4526Z" fill="black"/>
<path id="Vector_20" fill-rule="evenodd" clip-rule="evenodd" d="M45.3906 31.8225L47.0489 29.2793L47.5041 32.9311L45.3906 31.8225Z" fill="black"/>
<path id="Vector_21" fill-rule="evenodd" clip-rule="evenodd" d="M47.1465 33.2246L47.6342 38.0502L48.0569 38.0828L49.2925 33.2572L47.1465 33.2246Z" fill="black"/>
</g>
</g>
</g>
</g>
<path id="Vector_22" fill-rule="evenodd" clip-rule="evenodd" d="M75.1095 64.2325L76.1175 59.7656L24.5488 66.9713L75.1095 64.2325Z" fill="black"/>
<path id="Vector_23" fill-rule="evenodd" clip-rule="evenodd" d="M18.3059 51.5484L79.8892 39.2237L78.8812 38.7998L19.1188 50.4724L18.3059 51.5484Z" fill="black"/>
<path id="Vector_24" d="M79.8892 39.2246L18.3059 51.5494V67.8193L79.7266 59.2768L79.8892 39.2246Z" fill="#FE0002"/>
<g id="Group_5">
<path id="Vector_25" fill-rule="evenodd" clip-rule="evenodd" d="M77.5158 50.8642L77.6458 50.8316L77.5158 54.8747L57.3565 58.4286V58.233C56.8037 58.5916 56.1535 58.8199 55.5032 58.9503C54.7878 59.0807 54.0725 59.0807 53.3897 58.8199C52.7069 58.559 52.1541 58.1026 51.894 57.4179C51.6664 56.831 51.6664 56.1463 51.6664 55.5268L51.6989 54.0269L52.3167 53.9291C52.1541 53.7335 52.0241 53.4726 51.9265 53.2444C51.7314 52.7553 51.6989 52.201 51.6989 51.6793C51.7314 51.0272 51.7965 50.2773 52.1216 49.6904C52.4142 49.1361 52.8369 48.7123 53.3572 48.3862C53.9099 48.0602 54.4952 47.8319 55.1455 47.7341C55.7958 47.6037 56.4786 47.6037 57.1289 47.7667C57.2915 47.7993 57.454 47.8645 57.6166 47.9624V47.4733L78.036 43.8867L77.5158 50.8642ZM45.2935 49.6578C45.1959 49.3644 45.1634 49.0709 45.1634 48.7775V47.7993L50.5934 46.8538L50.4959 48.321C50.4959 48.484 50.4633 48.6145 50.4308 48.7775L51.4713 48.5819L51.1462 59.5698L35.1163 62.4064V62.2434C35.0838 62.2434 35.0513 62.276 35.0187 62.276C34.5635 62.4716 34.0108 62.5695 33.4905 62.6673L33.1979 62.7325C33.1979 62.7325 33.1979 62.7325 33.1654 62.7325L28.8734 63.4824L28.8409 64.9822L25.0041 65.6669L25.0367 64.1671L23.671 64.3954L23.6385 65.8952L19.8018 66.5799L19.9643 60.9718L20.6471 60.8414C20.8422 60.1567 20.9723 59.4394 21.0698 58.7547C21.2649 57.5483 21.3625 56.3093 21.395 55.0703L21.4275 53.8639L45.2935 49.6578Z" fill="black"/>
</g>
<g id="&#208;&#148;&#208;&#149;&#208;&#155;&#208;&#144;&#208;&#153; SMM!">
<path d="M27.7276 64.1896L26.1688 64.4644L26.2133 62.9748L22.5707 63.6169L22.5263 65.1065L20.9728 65.3804L21.0711 62.0862L21.5318 62.005C21.7958 61.2539 22.0218 60.2882 22.2098 59.1079C22.4014 57.9234 22.5177 56.646 22.5586 55.2757L22.5664 55.0141L27.5696 54.1321L27.3656 60.966L27.8263 60.8848L27.7276 64.1896ZM25.1051 61.3645L25.2581 56.239L24.5885 56.3571L24.5866 56.4211C24.5372 58.0762 24.3082 59.7948 23.8998 61.5769L25.1051 61.3645Z" fill="white"/>
<path d="M28.7372 53.9315L32.4976 53.2686L32.446 54.9985L30.9407 55.2638L30.8918 56.9029L32.3006 56.6545L32.2515 58.2989L30.8427 58.5473L30.786 60.448L32.4412 60.1562L32.3896 61.886L28.4792 62.5754L28.7372 53.9315Z" fill="white"/>
<path d="M38.5498 60.8001L36.2893 61.1986L36.4958 54.2792L35.8369 54.3954L35.6908 59.2912C35.6716 59.9355 35.5738 60.413 35.3976 60.7238C35.2249 61.0339 34.9679 61.2545 34.6265 61.3855C34.2851 61.5165 33.743 61.6474 33.0002 61.7784L32.6467 61.8407L32.6912 60.3511C32.9661 60.3026 33.1564 60.2355 33.262 60.1496C33.3676 60.0637 33.4263 59.8232 33.4381 59.4281L33.628 53.064L38.808 52.1509L38.5498 60.8001Z" fill="white"/>
<path d="M43.6021 51.3111L44.635 59.7273L42.3263 60.1343L42.2602 58.6005L41.4513 58.7431L41.271 60.3204L38.9355 60.7321L40.3398 51.8862L43.6021 51.3111ZM42.2416 57.0796C42.1566 56.1209 42.0784 54.9326 42.007 53.5148C41.7291 55.2066 41.5502 56.4402 41.4703 57.2155L42.2416 57.0796Z" fill="white"/>
<path d="M50.056 58.7717L48.1705 59.1041L48.2879 55.1692L46.9973 59.3109L45.0207 59.6593L45.2789 51.0102L47.1644 50.6778L47.0479 54.5806L48.4286 50.4549L50.3142 50.1225L50.056 58.7717ZM48.4472 48.5822L49.3579 48.4217C49.322 48.9095 49.1675 49.3244 48.8944 49.6665C48.6249 50.0078 48.2563 50.2198 47.7884 50.3022C47.317 50.3853 46.9554 50.3021 46.7035 50.0527C46.4553 49.799 46.3277 49.4338 46.3206 48.9571L47.2313 48.7966C47.2596 49.2766 47.454 49.4849 47.8147 49.4213C48.179 49.3571 48.3898 49.0774 48.4472 48.5822Z" fill="white"/>
<path d="M57.8532 51.4012L55.7587 51.7704L55.7778 51.1297C55.7868 50.8307 55.7657 50.645 55.7145 50.5726C55.6634 50.5002 55.5754 50.475 55.4504 50.497C55.3147 50.5209 55.2095 50.5944 55.1347 50.7173C55.0636 50.8396 55.0247 51.0129 55.018 51.2371C55.0094 51.5254 55.0422 51.7356 55.1164 51.8677C55.187 52.0004 55.3942 52.1391 55.7381 52.2839C56.7238 52.7014 57.3413 53.0776 57.5907 53.4125C57.84 53.7474 57.952 54.3384 57.9267 55.1855C57.9083 55.8012 57.8216 56.268 57.6665 56.5856C57.5149 56.9027 57.229 57.1974 56.8088 57.4697C56.3887 57.7385 55.9037 57.9214 55.3537 58.0183C54.7502 58.1247 54.2376 58.1018 53.8159 57.9496C53.3977 57.7967 53.1278 57.5557 53.0062 57.2266C52.8846 56.8975 52.8334 56.4091 52.8528 55.7613L52.8697 55.1954L54.9641 54.8261L54.9327 55.8779C54.9231 56.2018 54.9454 56.405 54.9998 56.4875C55.0577 56.5693 55.1617 56.597 55.3117 56.5706C55.4617 56.5441 55.5742 56.4659 55.6491 56.3358C55.7276 56.2052 55.7703 56.0241 55.7772 55.7928C55.7924 55.2838 55.7327 54.9633 55.5981 54.8312C55.4599 54.6998 55.116 54.5002 54.5662 54.2324C54.0166 53.9611 53.6532 53.7578 53.4761 53.6226C53.299 53.4875 53.1541 53.2829 53.0415 53.0088C52.9325 52.7342 52.8848 52.3673 52.8985 51.9081C52.9183 51.2461 53.0166 50.7472 53.1936 50.4115C53.3742 50.0752 53.6563 49.7883 54.0399 49.5507C54.4237 49.3096 54.8834 49.1418 55.419 49.0473C56.0047 48.9441 56.5001 48.9506 56.9051 49.0668C57.3137 49.1825 57.5798 49.3728 57.7033 49.6378C57.8305 49.8986 57.8839 50.3725 57.8634 51.0595L57.8532 51.4012Z" fill="white"/>
<path d="M65.7896 47.3997L65.5316 56.0436L63.5603 56.3911L63.7345 50.5556L62.7729 56.5299L61.3747 56.7764L60.7147 51.2207L60.5445 56.9227L58.5732 57.2702L58.8312 48.6264L61.7506 48.1118C61.8208 48.6163 61.8936 49.2125 61.969 49.9002L62.214 52.0451L62.8487 47.9182L65.7896 47.3997Z" fill="white"/>
<path d="M73.6532 46.0135L73.3952 54.6573L71.4239 55.0048L71.5981 49.1693L70.6365 55.1436L69.2384 55.3901L68.5783 49.8344L68.4081 55.5365L66.4368 55.884L66.6949 47.2402L69.6143 46.7255C69.6845 47.2301 69.7573 47.8262 69.8326 48.514L70.0777 50.6589L70.7124 46.5319L73.6532 46.0135Z" fill="white"/>
<path d="M76.8726 45.446L76.3248 52.0165L74.6535 52.3111L74.4942 45.8652L76.8726 45.446ZM76.4895 52.3911L76.4378 54.1209L74.413 54.4779L74.4646 52.7481L76.4895 52.3911Z" fill="white"/>
</g>
</g>
</svg>
