<svg width="397" height="372" viewBox="0 0 397 372" fill="none" xmlns="http://www.w3.org/2000/svg">
<mask id="mask0_2_1751" style="mask-type:alpha" maskUnits="userSpaceOnUse" x="0" y="22" width="284" height="277">
<rect x="121.592" y="23.2754" width="8.7037" height="171.957" transform="rotate(45 121.592 23.2754)" fill="#E5E5E5"/>
<path d="M158.898 22.9035L18.471 163.331L12.3166 157.177L144.939 24.5537L158.898 22.9035Z" fill="#E5E5E5"/>
<path d="M182.654 23.7667L30.7805 175.64L24.6261 169.485L171.138 22.9737L182.654 23.7667Z" fill="#E5E5E5"/>
<path d="M193.18 25.6518L202.655 28.383L43.09 187.948L36.9356 181.794L193.18 25.6518Z" fill="#E5E5E5"/>
<rect width="9.01379" height="245.911" transform="matrix(0.682781 0.682783 -0.682781 0.682783 217.149 26.1997)" fill="#E5E5E5"/>
<rect width="9.01379" height="245.169" transform="matrix(0.682781 0.682783 -0.682781 0.682783 228.949 39.0151)" fill="#E5E5E5"/>
<rect width="9.01378" height="248.849" transform="matrix(0.682782 0.682783 -0.682782 0.682783 243.771 48.8115)" fill="#E5E5E5"/>
<rect x="254.644" y="62.5566" width="8.70371" height="238.257" transform="rotate(45 254.644 62.5566)" fill="#E5E5E5"/>
<rect width="9.01379" height="243.066" transform="matrix(0.682781 0.682783 -0.682781 0.682783 264.44 77.3779)" fill="#E5E5E5"/>
<rect width="9.01379" height="236.757" transform="matrix(0.682782 0.682783 -0.682782 0.682783 272.441 93.9941)" fill="#E5E5E5"/>
<rect width="9.01379" height="225.191" transform="matrix(0.682782 0.682783 -0.682782 0.682783 276.854 114.201)" fill="#E5E5E5"/>
<rect x="277.676" y="137.996" width="8.70371" height="201.2" transform="rotate(45 277.676 137.996)" fill="#E5E5E5"/>
<rect width="9.01378" height="185.762" transform="matrix(0.682781 0.682783 -0.682781 0.682783 274.55 165.74)" fill="#E5E5E5"/>
</mask>
<g mask="url(#mask0_2_1751)">
<ellipse cx="165.929" cy="132.814" rx="109.007" ry="109.808" fill="#E5E5E5"/>
</g>
<circle cx="27.1608" cy="27.1608" r="27.1608" transform="matrix(1 0 0 -1 131.73 54.3218)" fill="#151866" style="mix-blend-mode:multiply"/>
<g clip-path="url(#clip0_2_1751)">
<path d="M326.958 226.533C338.631 227.982 347.365 237.948 347.276 249.71L347.277 267.866H316.374L317.185 269.488C321.736 278.578 324.104 288.606 324.1 298.769H208.214C208.21 288.605 210.578 278.578 215.128 269.488L215.94 267.866L223.624 245.446L227.698 223.732L232.163 223.172L233.863 227.035C237.421 235.301 244.007 241.892 252.273 245.446C270.108 253.113 290.782 244.87 298.45 227.035L300.15 223.172L326.958 226.533Z" fill="#151866"/>
<path d="M174.055 261.875L178.13 249.71C181.767 242.974 185.674 237.524 190.141 233.583L192.842 245.446L194.997 264.871L174.055 261.875Z" fill="#151866"/>
<path d="M289.333 148.117C293.6 148.117 297.059 144.658 297.059 140.391C297.059 136.124 293.6 132.665 289.333 132.665C285.066 132.665 281.607 136.124 281.607 140.391C281.607 144.658 285.066 148.117 289.333 148.117Z" fill="black"/>
<path d="M264.936 167.234L253.347 163.371C252.208 162.989 251.307 162.096 250.917 160.961C250.527 159.821 250.69 158.566 251.358 157.565L259.084 145.977L265.511 150.26L260.59 157.642L267.381 159.906L264.936 167.234Z" fill="black"/>
<path d="M351.178 298.769H343.452V249.903C343.53 240.072 336.248 231.771 326.521 230.558L291.755 226.235C285.922 225.502 281.561 220.518 281.608 214.647V198.334H289.333V214.674C289.318 216.663 290.77 218.32 292.714 218.568L327.472 222.891C341.092 224.583 351.282 236.21 351.178 249.93V298.769Z" fill="black"/>
<path d="M312.51 159.705H308.648V151.979H312.51C316.771 151.979 320.236 148.515 320.236 144.254C320.236 139.993 316.771 136.528 312.51 136.528H308.648V128.802H312.51C321.032 128.802 327.962 135.732 327.962 144.253C327.962 152.774 321.032 159.705 312.51 159.705Z" fill="black"/>
<path d="M266.175 252.414C266.16 252.414 266.144 252.414 266.133 252.414C250.523 252.414 236.462 243.143 230.312 228.789L227.84 223.037L234.94 219.989L237.412 225.745C242.345 237.253 253.621 244.688 266.136 244.688C266.148 244.688 266.159 244.688 266.171 244.688C278.695 244.688 289.97 237.256 294.903 225.749L297.375 219.989L304.475 223.037L302.003 228.793C295.854 243.143 281.789 252.414 266.175 252.414Z" fill="black"/>
<path d="M261.378 179.02C261.374 179.02 261.371 179.02 261.367 179.02H258.431V171.294H261.367C261.371 171.294 261.374 171.294 261.378 171.294C266.435 171.294 271.495 170.1 276.018 167.837L279.476 174.748C273.886 177.544 267.628 179.02 261.378 179.02Z" fill="black"/>
<path d="M229.042 224.785C201.442 180.846 204.956 122.491 212.273 100.542C219.415 78.6046 238.05 66.9966 266.156 66.9966C306.77 66.9966 324.099 87.7904 324.099 136.528H316.373C316.373 92.051 302.293 74.7225 266.156 74.7225C241.368 74.7225 225.712 84.221 219.612 102.96C212.621 123.931 209.361 179.602 236.072 221.587L229.042 224.785Z" fill="black"/>
<path d="M266.156 206.06C242.404 206.06 222.977 187.468 221.93 163.738L219.814 136.833C219.763 136.192 219.876 135.547 220.134 134.96L235.586 100.194C236.103 99.0308 237.158 98.1965 238.409 97.9648C239.665 97.7289 240.947 98.1309 241.847 99.0308C242.029 99.2087 261.228 117.758 309.517 128.899C311.367 129.327 312.634 131.035 312.503 132.927L310.379 163.831C309.339 187.472 289.913 206.06 266.156 206.06ZM227.593 137.2L229.645 163.263C230.514 182.987 246.549 198.334 266.156 198.334C285.764 198.334 301.803 182.987 302.664 163.398L304.569 135.667C268.274 126.836 248.5 114.147 240.557 108.032L227.593 137.2Z" fill="black"/>
<path d="M242.979 148.117C247.245 148.117 250.704 144.658 250.704 140.391C250.704 136.124 247.245 132.665 242.979 132.665C238.712 132.665 235.253 136.124 235.253 140.391C235.253 144.658 238.712 148.117 242.979 148.117Z" fill="black"/>
<path d="M316.226 226.433L308.794 224.312C316.281 198.11 316.373 152.436 316.373 151.976H324.099C324.099 153.896 324.01 199.188 316.226 226.433Z" fill="black"/>
<path d="M347.277 264.003H316.374V271.729H347.277V264.003Z" fill="black"/>
<path fill-rule="evenodd" clip-rule="evenodd" d="M192.895 271.783L175.015 268.84L176.264 261.247L194.145 264.189L192.895 271.783Z" fill="black"/>
<path d="M327.962 298.769H320.236C320.24 289.254 317.992 279.728 313.727 271.215L312.916 269.592C312.649 269.056 312.51 268.464 312.51 267.866V256.277H320.236V266.954L320.638 267.761C325.436 277.341 327.966 288.065 327.962 298.769Z" fill="black"/>
</g>
<path d="M243.541 214.709V197.368H251.236V214.709C251.236 221.496 245.977 227.123 239.205 227.581L228.383 228.313L227.864 220.635L238.686 219.903C241.419 219.718 243.541 217.448 243.541 214.709Z" fill="black"/>
<path d="M179.993 261.068L161.688 340.493C161.372 341.863 161.624 343.303 162.387 344.485L171.855 359.151L165.39 363.325L155.922 348.659C154.031 345.73 153.406 342.161 154.189 338.764L172.494 259.34C175.446 246.532 183.278 235.814 193.81 229.044V238.574C187.041 244.226 182.076 252.03 179.993 261.068Z" fill="black"/>
<path fill-rule="evenodd" clip-rule="evenodd" d="M194.199 186.185C194.199 182.611 197.096 179.714 200.67 179.714C203.732 179.714 206.374 181.859 207.003 184.855L211.922 208.27L227.797 219.975C232.335 223.322 234.175 229.228 232.338 234.56L227.736 247.92C227.5 248.605 227.207 249.269 226.859 249.905L216.872 268.18L199.489 356.384C198.736 360.206 196.296 363.483 192.85 365.3L183.675 370.14C177.605 373.342 170.091 371.231 166.576 365.338L157.967 350.905C155.837 347.334 155.558 342.956 157.219 339.144L190.929 261.758L188.552 242.744C188.356 241.173 188.45 239.58 188.831 238.043L194.199 216.364V186.185ZM201.895 197.967V217.303L196.301 239.893C196.147 240.513 196.109 241.156 196.188 241.79L198.827 262.897L164.274 342.217C163.604 343.755 163.716 345.522 164.576 346.963L173.185 361.396C174.603 363.774 177.635 364.625 180.084 363.333L189.26 358.494C190.65 357.76 191.635 356.438 191.939 354.896L209.551 265.529L220.107 246.215C220.247 245.958 220.365 245.69 220.46 245.414L225.062 232.054C225.803 229.903 225.061 227.519 223.23 226.169L204.994 212.723L201.895 197.967Z" fill="black"/>
<path fill-rule="evenodd" clip-rule="evenodd" d="M208.454 206.443L227.364 219.95L222.424 233.026L216.107 246.856C213.922 251.64 207.234 251.927 204.646 247.349C203.934 246.089 203.667 244.626 203.888 243.196L205.772 231.025L192.339 261.495L189.854 237.89L194.608 216.376L208.454 206.443ZM208.464 215.907L201.487 220.912L200.742 224.281C202.133 222.737 204.135 221.813 206.285 221.813C210.858 221.813 214.354 225.891 213.654 230.41L212.883 235.391L215.317 230.065L218.072 222.77L208.464 215.907Z" fill="black"/>
<circle cx="14.9384" cy="14.9384" r="14.9384" transform="matrix(1 0 0 -1 367.123 194.2)" fill="#151866" style="mix-blend-mode:multiply"/>
<defs>
<clipPath id="clip0_2_1751">
<rect width="231.772" height="231.772" fill="white" transform="translate(150.29 66.9966)"/>
</clipPath>
</defs>
</svg>
