<svg width="566" height="336" viewBox="0 0 566 336" fill="none" xmlns="http://www.w3.org/2000/svg">
<rect width="566" height="322" fill="white"/>
<mask id="mask0_2_1820" style="mask-type:alpha" maskUnits="userSpaceOnUse" x="229" y="67" width="271" height="263">
<rect width="8.57713" height="169.457" transform="matrix(-0.682782 -0.682781 0.682783 -0.682781 383.378 329.11)" fill="#E5E5E5"/>
<path d="M347.878 329.464L481.503 195.839L487.359 201.696L361.16 327.894L347.878 329.464Z" fill="#E5E5E5"/>
<path d="M325.276 328.643L469.792 184.127L475.648 189.983L336.234 329.397L325.276 328.643Z" fill="#E5E5E5"/>
<path d="M315.259 326.849L306.242 324.25L458.078 172.414L463.934 178.27L315.259 326.849Z" fill="#E5E5E5"/>
<rect width="8.57714" height="233.999" transform="matrix(-0.682782 -0.682783 0.682782 -0.682782 292.451 326.328)" fill="#E5E5E5"/>
<rect x="281.222" y="314.133" width="8.28208" height="225.267" transform="rotate(-135 281.222 314.133)" fill="#E5E5E5"/>
<rect width="8.57713" height="236.794" transform="matrix(-0.682781 -0.682783 0.682781 -0.682783 267.117 304.811)" fill="#E5E5E5"/>
<rect width="8.57714" height="234.793" transform="matrix(-0.68278 -0.682784 0.68278 -0.682784 256.772 291.732)" fill="#E5E5E5"/>
<rect width="8.57714" height="231.291" transform="matrix(-0.682783 -0.682781 0.682783 -0.682781 247.45 277.628)" fill="#E5E5E5"/>
<rect width="8.57714" height="225.288" transform="matrix(-0.68278 -0.682784 0.68278 -0.682784 239.837 261.817)" fill="#E5E5E5"/>
<rect width="8.57714" height="214.282" transform="matrix(-0.682781 -0.682783 0.682781 -0.682783 235.638 242.59)" fill="#E5E5E5"/>
<rect width="8.57714" height="198.274" transform="matrix(-0.682781 -0.682783 0.682781 -0.682783 234.856 219.947)" fill="#E5E5E5"/>
<rect width="8.57713" height="176.763" transform="matrix(-0.682781 -0.682783 0.682782 -0.682782 237.829 193.547)" fill="#E5E5E5"/>
</mask>
<g mask="url(#mask0_2_1820)">
<ellipse cx="341.189" cy="224.878" rx="103.726" ry="104.489" transform="rotate(-180 341.189 224.878)" fill="#E5E5E5"/>
</g>
<g clip-path="url(#clip0_2_1820)">
<path d="M285.012 181.335C286.085 181.916 287.258 182.291 288.467 182.438L297.352 183.614L285.012 198.422L299.531 212.421L318.929 188.017C328.754 192.844 335.369 202.94 335.369 214.417V254.85L326.022 284.141L307.069 287.157L275.409 271.434L258.178 256.358L220.703 285.434L190.12 284.141L180.988 254.85V214.418C181.032 202.895 187.74 192.783 197.658 188.017L216.396 210.914L231.346 198.422L219.842 183.614L227.891 182.549C229.107 182.369 230.283 181.957 231.346 181.336L258.178 218.093L285.012 181.335Z" fill="#151866"/>
<path d="M243.476 199.714L258.178 218.093L272.881 199.714H243.476Z" fill="#EBEBEB"/>
<path d="M236.124 100.469C240.184 100.469 243.476 97.1779 243.476 93.1177C243.476 89.0576 240.184 85.7661 236.124 85.7661C232.064 85.7661 228.772 89.0576 228.772 93.1177C228.772 97.1779 232.064 100.469 236.124 100.469Z" fill="black"/>
<path d="M280.233 100.469C284.293 100.469 287.585 97.1779 287.585 93.1177C287.585 89.0576 284.293 85.7661 280.233 85.7661C276.173 85.7661 272.881 89.0576 272.881 93.1177C272.881 97.1779 276.173 100.469 280.233 100.469Z" fill="black"/>
<path d="M258.178 122.524H254.503C253.448 122.524 252.444 122.071 251.746 121.281C251.048 120.491 250.724 119.44 250.853 118.392L254.528 88.9863L261.821 89.8978L258.178 119.079V122.524Z" fill="black"/>
<path d="M302.287 107.821H298.612V100.469H302.287C306.341 100.469 309.639 97.1725 309.639 93.1179C309.639 89.0632 306.342 85.7662 302.287 85.7662H298.612V78.415H302.287C310.396 78.415 316.99 85.0094 316.99 93.1179C316.99 101.226 310.396 107.821 302.287 107.821Z" fill="black"/>
<path d="M217.745 107.821H214.07C205.961 107.821 199.367 101.227 199.367 93.1183C199.367 85.0098 205.961 78.415 214.07 78.415H217.745V85.7667H214.07C210.015 85.7667 206.718 89.0636 206.718 93.1183C206.718 97.1725 210.015 100.47 214.07 100.47H217.745V107.821Z" fill="black"/>
<path d="M267.287 177.88C267.276 177.88 267.265 177.88 267.254 177.88H250.459C237.984 177.858 226.222 171.79 218.981 161.637L217.617 159.722C212.897 153.128 210.394 145.346 210.394 137.227V74.7393H217.746V137.227C217.746 143.803 219.771 150.103 223.601 155.451L224.968 157.366C230.835 165.589 240.366 170.511 250.467 170.525H267.258C267.265 170.525 267.276 170.525 267.284 170.525C278.502 170.525 288.916 164.475 294.466 154.738C297.226 149.945 298.66 144.501 298.616 138.98V78.4149H305.967V138.954C306.019 145.751 304.247 152.481 300.847 158.395C293.991 170.408 281.134 177.88 267.287 177.88Z" fill="black"/>
<path d="M302.287 85.7666C301.898 85.7666 301.504 85.7042 301.126 85.5793C292.44 82.6829 286.022 72.5305 282.806 66.3294C257.267 88.3727 201.23 78.8014 198.731 78.3603C197.643 78.1691 196.694 77.4967 196.158 76.5262C195.621 75.5596 195.544 74.4017 195.956 73.3722C203.719 53.9604 223.799 34.3062 247.151 34.3062H257.296C267.839 34.31 277.774 38.2355 285.449 45.3885C296.891 46.1789 305.963 55.7468 305.963 67.3878V82.0906C305.963 83.2704 305.397 84.3805 304.438 85.0718C303.802 85.5315 303.048 85.7666 302.287 85.7666ZM283.909 56.3606C284.107 56.3606 284.306 56.3752 284.508 56.4084C285.776 56.6177 286.842 57.4745 287.32 58.6651C288.79 62.3187 293.12 70.876 298.611 75.6617V67.3878C298.611 59.2789 292.017 52.685 283.909 52.685C282.935 52.685 281.997 52.299 281.31 51.6116C274.892 45.1973 266.364 41.6612 257.292 41.6578H247.151C228.751 41.6578 212.57 56.2025 204.722 71.8026C219.363 73.6845 264.063 77.5406 281.119 57.6438C281.825 56.8202 282.846 56.3606 283.909 56.3606Z" fill="black"/>
<path d="M283.658 133.555C280.295 133.555 277.123 131.85 275.215 128.96C272.518 124.965 267.989 122.546 263.122 122.528H253.216C248.309 122.41 243.721 124.928 240.972 128.997C239.093 131.839 235.907 133.552 232.462 133.552C232.455 133.552 232.448 133.552 232.437 133.552C228.79 133.475 225.464 131.5 223.674 128.406L210.875 105.969L217.26 102.326L230.051 124.748C230.551 125.616 231.503 126.182 232.525 126.204H232.529C233.426 126.204 234.319 125.722 234.856 124.913C238.991 118.797 245.817 115.173 253.15 115.173C253.176 115.173 253.201 115.173 253.227 115.173H263.137C270.448 115.206 277.244 118.834 281.328 124.881C281.898 125.744 282.706 126.182 283.816 126.204C284.959 126.204 285.93 125.641 286.455 124.734L299.085 102.341L305.488 105.951L292.844 128.373C290.995 131.578 287.58 133.552 283.912 133.552C283.901 133.551 283.743 133.555 283.658 133.555Z" fill="black"/>
<path d="M258.178 139.006C254.047 139.006 249.915 138.348 245.986 137.035L248.316 130.062C254.675 132.187 261.681 132.187 268.044 130.062L270.371 137.035C266.437 138.352 262.31 139.006 258.178 139.006Z" fill="black"/>
<path d="M177.312 240.148H184.664H184.665V214.417C184.665 203.727 191.316 194.335 200.889 190.512L195.72 184.782C184.743 190.25 177.312 201.609 177.312 214.417V240.148Z" fill="black"/>
<path d="M232.452 173.021C232.445 175.921 230.269 178.402 227.409 178.792L216.711 180.209L221.565 186.985L228.391 186.081C234.882 185.195 239.789 179.586 239.804 173.036L232.452 173.021Z" fill="black"/>
<path d="M331.693 240.148H339.045V214.417C339.045 201.693 331.712 190.398 320.853 184.889L315.468 190.512C325.042 194.337 331.693 203.727 331.693 214.417V240.148Z" fill="black"/>
<path d="M276.561 173.036C276.575 179.587 281.479 185.195 287.989 186.081L294.362 186.926L299.654 180.209L288.966 178.792C286.092 178.403 283.92 175.922 283.912 173.021L276.561 173.036Z" fill="black"/>
<path d="M214.07 225.444H206.718V254.85H214.07V225.444Z" fill="black"/>
<path d="M309.639 225.444H302.287V254.85H309.639V225.444Z" fill="black"/>
<path d="M235.462 179.229L229.438 183.442L245.653 206.606L258.178 211.683L235.462 179.229Z" fill="black"/>
<path d="M280.898 179.229L258.178 211.683L270.708 206.606L286.923 183.442L280.898 179.229Z" fill="black"/>
<path d="M272.882 196.039H243.476V203.391H272.882V196.039Z" fill="black"/>
</g>
<path d="M287.584 196.13C284.723 193.299 280.2 193.047 277.041 195.541L255.663 212.422L261.404 217.219L281.579 201.288C281.835 201.086 282.202 201.106 282.434 201.336L296.583 215.332C296.88 215.626 296.828 216.007 296.607 216.213C293.164 219.429 287.242 224.937 280.206 231.375L285.64 236.329C292.487 230.059 298.235 224.713 301.606 221.564C304.949 218.441 304.903 213.263 301.733 210.127L287.584 196.13Z" fill="black"/>
<path d="M230.442 282.824C233.883 280.924 239.302 276.786 245.469 271.718C250.303 267.745 255.748 263.073 261.324 258.181L255.663 253.405C250.419 257.996 245.337 262.348 240.82 266.06C234.579 271.189 229.661 274.89 226.902 276.414C219.741 280.368 213.642 283.088 208.093 283.851C202.781 284.581 197.866 283.533 192.821 279.546C191.4 278.424 189.882 275.728 188.579 271.377C187.333 267.215 186.475 262.219 185.894 257.319C185.316 252.442 185.025 247.776 184.88 244.322C184.807 242.598 184.771 241.182 184.753 240.202C184.744 239.712 184.739 239.331 184.737 239.075C184.736 238.947 184.735 238.85 184.735 238.786L184.735 238.716L184.735 238.697C184.735 238.697 184.735 238.698 181.073 238.698C177.412 238.698 177.412 238.699 177.412 238.699L177.412 238.732L177.412 238.817C177.413 238.891 177.413 238.999 177.415 239.138C177.417 239.416 177.422 239.821 177.431 240.337C177.45 241.367 177.488 242.841 177.563 244.63C177.714 248.203 178.016 253.064 178.622 258.181C179.226 263.275 180.145 268.741 181.564 273.478C182.927 278.028 184.962 282.669 188.28 285.292C194.947 290.56 201.878 292.097 209.09 291.105C216.067 290.146 223.172 286.839 230.442 282.824Z" fill="black"/>
<path d="M209.388 248.962L213.926 254.709L237.203 236.329L231.661 231.375L209.388 248.962Z" fill="black"/>
<path fill-rule="evenodd" clip-rule="evenodd" d="M332.011 160.865C332.835 160.859 334.02 160.933 335.119 161.471C336.198 161.998 337.298 162.767 338.081 163.931C338.913 165.167 339.187 166.549 339.057 167.88C338.832 170.192 337.385 172.318 336.06 173.983C334.616 175.799 332.669 177.834 330.528 180.015C329.975 180.579 329.405 181.157 328.82 181.749C327.097 183.495 325.244 185.372 323.293 187.434C318.172 192.845 312.889 199.706 308.85 205.277C306.84 208.05 305.156 210.478 303.975 212.211C303.385 213.078 302.922 213.769 302.607 214.242C302.45 214.479 302.33 214.661 302.25 214.782C302.21 214.843 302.18 214.889 302.16 214.919L302.133 214.961L299.639 218.788L281.074 199.788L282.676 197.329L285.743 199.328C282.676 197.329 282.677 197.328 282.677 197.328L282.687 197.312L282.713 197.274C282.734 197.241 282.764 197.196 282.803 197.137C282.881 197.019 282.995 196.85 283.142 196.633C283.436 196.201 283.865 195.58 284.416 194.808C285.517 193.266 287.109 191.117 289.087 188.669C293.02 183.801 298.576 177.629 304.913 172.712C310.396 168.457 316.656 165.256 321.909 163.275C324.536 162.284 326.996 161.566 329.056 161.185C330.081 160.994 331.088 160.873 332.011 160.865ZM290.472 198.929L298.541 207.186C299.693 205.507 301.189 203.368 302.922 200.979C307.024 195.319 312.526 188.157 317.975 182.4C319.984 180.278 321.914 178.322 323.649 176.564C324.223 175.983 324.775 175.423 325.301 174.887C327.465 172.681 329.155 170.902 330.329 169.426C330.701 168.958 330.978 168.571 331.184 168.258C330.95 168.288 330.686 168.33 330.39 168.385C328.868 168.667 326.837 169.243 324.493 170.127C319.805 171.895 314.214 174.764 309.401 178.498C303.697 182.923 298.547 188.612 294.783 193.271C292.969 195.515 291.501 197.492 290.472 198.929ZM332.334 168.199C332.334 168.199 332.328 168.199 332.317 168.197C332.329 168.198 332.334 168.199 332.334 168.199Z" fill="black"/>
<path fill-rule="evenodd" clip-rule="evenodd" d="M239.741 195.541C236.582 193.047 232.059 193.299 229.198 196.13L215.049 210.127C211.879 213.263 211.833 218.441 215.176 221.564C221.458 227.432 235.992 240.927 250.517 253.819C257.778 260.264 265.057 266.577 271.313 271.718C277.48 276.786 282.899 280.924 286.34 282.824C293.61 286.839 300.715 290.146 307.692 291.105C314.904 292.097 321.835 290.56 328.502 285.292C331.82 282.669 333.855 278.028 335.218 273.478C336.637 268.741 337.556 263.275 338.16 258.181C338.766 253.064 339.068 248.203 339.219 244.63C339.294 242.841 339.332 241.367 339.351 240.337C339.36 239.821 339.365 239.416 339.367 239.138C339.369 238.999 339.369 238.891 339.37 238.817L339.37 238.732L339.37 238.699C339.37 238.698 339.37 238.698 335.708 238.698C332.047 238.698 332.047 238.697 332.047 238.697L332.047 238.716L332.047 238.786C332.047 238.85 332.046 238.947 332.045 239.075C332.043 239.331 332.038 239.712 332.029 240.202C332.011 241.182 331.975 242.598 331.902 244.322C331.757 247.776 331.466 252.442 330.888 257.319C330.307 262.219 329.449 267.215 328.203 271.377C326.9 275.728 325.382 278.424 323.961 279.546C318.916 283.533 314.001 284.581 308.689 283.851C303.14 283.088 297.041 280.368 289.88 276.414C287.121 274.89 282.203 271.189 275.962 266.06C269.809 261.004 262.608 254.76 255.378 248.343C240.923 235.512 226.441 222.066 220.175 216.213C219.954 216.007 219.902 215.626 220.199 215.332L234.348 201.336C234.58 201.106 234.947 201.086 235.203 201.288L302.856 254.709L307.394 248.962L239.741 195.541Z" fill="black"/>
<path fill-rule="evenodd" clip-rule="evenodd" d="M184.771 160.865C183.947 160.859 182.762 160.933 181.662 161.471C180.584 161.998 179.484 162.767 178.701 163.931C177.869 165.167 177.595 166.549 177.725 167.88C177.95 170.192 179.397 172.318 180.722 173.983C182.166 175.799 184.113 177.834 186.254 180.015C186.807 180.579 187.377 181.157 187.962 181.749C189.685 183.495 191.538 185.372 193.489 187.434C198.61 192.845 203.893 199.706 207.932 205.277C209.942 208.05 211.626 210.478 212.807 212.211C213.397 213.078 213.86 213.769 214.175 214.242C214.332 214.479 214.452 214.661 214.532 214.782C214.572 214.843 214.602 214.889 214.622 214.919L214.649 214.961L217.143 218.788L235.708 199.788L234.106 197.329L231.039 199.328C234.106 197.329 234.106 197.329 234.105 197.328L234.095 197.312L234.069 197.274C234.048 197.241 234.018 197.196 233.979 197.137C233.901 197.019 233.787 196.85 233.64 196.633C233.346 196.201 232.917 195.58 232.366 194.808C231.265 193.266 229.673 191.117 227.695 188.669C223.762 183.801 218.206 177.629 211.869 172.712C206.386 168.457 200.126 165.256 194.873 163.275C192.246 162.284 189.786 161.566 187.726 161.185C186.701 160.994 185.694 160.873 184.771 160.865ZM226.31 198.929L218.241 207.186C217.088 205.507 215.593 203.368 213.86 200.979C209.757 195.319 204.256 188.157 198.807 182.4C196.798 180.278 194.868 178.322 193.133 176.564C192.559 175.983 192.007 175.423 191.481 174.887C189.317 172.681 187.627 170.902 186.453 169.426C186.081 168.958 185.804 168.571 185.598 168.258C185.832 168.288 186.096 168.33 186.392 168.385C187.914 168.667 189.945 169.243 192.289 170.127C196.977 171.895 202.568 174.764 207.381 178.498C213.085 182.923 218.235 188.612 221.999 193.271C223.812 195.515 225.281 197.492 226.31 198.929ZM184.448 168.199C184.448 168.199 184.454 168.199 184.465 168.197C184.453 168.198 184.447 168.199 184.448 168.199Z" fill="black"/>
<circle cx="14.2148" cy="14.2148" r="14.2148" transform="matrix(1 0 0 -1 374.05 144.148)" fill="#151866" style="mix-blend-mode:multiply"/>
<circle cx="25.845" cy="25.845" r="25.845" transform="matrix(1 0 0 -1 110 53.6899)" fill="#151866" style="mix-blend-mode:multiply"/>
<defs>
<clipPath id="clip0_2_1820">
<rect width="161.962" height="252.851" fill="white" transform="translate(177.197 34.3062)"/>
</clipPath>
</defs>
</svg>
