<svg width="188" height="36" viewBox="0 0 188 36" fill="none" xmlns="http://www.w3.org/2000/svg">
<path d="M16.4563 5.13045L16.4925 0L18.106 3.30304C18.1873 3.47664 18.3049 3.60913 18.4585 3.70964L29.378 10.0462C30.0152 10.4025 30.3181 10.8776 30.3271 11.4578V16.3279L28.9577 16.3233V12.2665C28.9577 11.933 28.8492 11.4533 28.352 11.0558L18.5354 5.13045C18.0156 4.83349 17.193 4.74212 16.4563 5.13045Z" fill="#263A2A"/>
<path d="M18.5351 30.8695L18.5035 36L16.8899 32.697C16.8086 32.5234 16.6911 32.3909 16.5374 32.2904L5.61799 25.9538C4.98072 25.5975 4.67791 25.1223 4.66887 24.5421V19.6721L6.03832 19.6767V23.7335C6.03832 24.067 6.14679 24.5467 6.64395 24.9442L16.4561 30.8695C16.9803 31.1665 17.8029 31.2579 18.5351 30.8695Z" fill="#263A2A"/>
<path d="M6.07438 18.9273L0 18.9228L4.63262 16.9035L4.66878 12.0746C4.66426 11.2385 5.06199 10.535 5.89812 9.98218L15.4481 4.19388L15.8368 3.95175V5.57814L6.91503 10.9553C6.35912 11.2796 6.09246 11.8005 6.10602 12.5177L6.07438 18.9273Z" fill="#263A2A"/>
<path d="M28.9257 17.0999L35.0001 17.1045L30.3675 19.1237L30.3313 23.9527C30.3358 24.7887 29.9381 25.4923 29.102 26.0451L19.1678 32.0664V30.4491L28.085 25.072C28.641 24.7476 28.9076 24.2268 28.8941 23.5095L28.9257 17.0999Z" fill="#263A2A"/>
<path d="M27.4117 11.3985L18.4628 6.01223C17.8663 5.68786 17.125 5.68786 16.5284 6.01223L7.57958 11.3985C7.06434 11.7137 6.85192 12.1523 6.8248 12.6594V23.3361C6.8474 23.8477 7.06434 24.2817 7.57958 24.597L16.5284 29.9832C17.125 30.3076 17.8663 30.3076 18.4628 29.9832L27.4117 24.597C27.927 24.2817 28.1394 23.8432 28.1665 23.3361V12.6594C28.1439 12.1523 27.927 11.7183 27.4117 11.3985ZM8.88123 21.9427C8.16713 21.632 8.15357 21.0061 8.61909 20.435L8.82247 20.2386C8.91287 20.129 8.79536 19.9051 8.68237 19.6995C8.39311 18.6807 13.089 15.8528 13.9071 15.6564C13.9071 15.6564 12.2845 16.8625 13.9613 18.3472C15.5115 19.7178 19.1634 19.8229 19.1634 19.8229C13.211 19.8274 8.68237 20.1381 8.88123 21.9427ZM21.0255 18.3655C19.2899 18.4569 19.1634 19.1924 19.1634 19.1924C16.8087 18.9823 15.7872 18.5757 15.7872 18.5757C17.107 17.3467 21.1023 17.3284 24.1666 18.3655C24.1711 18.3655 23.7463 18.2239 21.0255 18.3655ZM16.9217 17.132C16.5601 17.2097 15.2901 17.4609 14.7703 18.1188C14.7703 18.1188 14.1556 17.7122 14.0517 17.3422C13.8167 16.4878 14.3952 15.7569 15.0098 15.6198C19.9995 14.5051 25.7078 18.329 25.7078 18.329C23.1768 17.3376 20.0086 16.4696 16.9217 17.132ZM12.5964 15.5102C12.5964 15.5102 12.7184 15.0031 12.4201 14.7701C11.9229 14.3818 10.5851 14.6604 10.5851 14.6604C17.5002 11.4351 24.8852 15.5193 27.3575 18.7995C27.3575 18.8041 19.421 12.5132 12.5964 15.5102Z" fill="#263A2A"/>
<path d="M9.51337 19.0917C9.47722 19.0689 9.29191 19.1329 9.15633 19.3613C8.97102 19.6719 9.06141 19.978 9.06141 19.978C9.16988 19.9506 9.48626 19.7359 9.51337 19.5943C9.55405 19.4024 9.57213 19.1329 9.51337 19.0917Z" fill="#263A2A"/>
<g clip-path="url(#clip0_31_676)">
<path d="M49.7202 12.5665V24.8473H48.219V12.5665H44.0498V11.1375H53.868V12.5665H49.7202Z" fill="#263A2A"/>
<path d="M56.1941 21.199L54.7356 24.8404H53.085L58.6557 11.1306H59.5024L65.0518 24.8404H63.4012L61.9427 21.199H56.1941ZM59.0755 13.9524L56.7348 19.77H61.4233L59.0755 13.9524Z" fill="#263A2A"/>
<path d="M67.1438 11.1375H71.4695C73.1984 11.1375 74.6 11.5799 75.6672 12.4722C76.7343 13.3571 77.2679 14.5613 77.2679 16.0773C77.2679 17.1872 76.962 18.1229 76.343 18.8773C75.7312 19.6317 74.8917 20.1685 73.8245 20.4804C74.5573 20.7924 75.2972 21.554 76.0513 22.7509L77.396 24.8473H75.6885L74.5928 23.1063C74.045 22.2431 73.5541 21.6846 73.1344 21.4234C72.7146 21.1623 72.1312 21.0245 71.3842 21.01H68.6379V24.8473H67.1367V11.1375H67.1438ZM68.6379 12.5665V19.581H71.5762C72.8213 19.581 73.8387 19.2835 74.6426 18.7032C75.4395 18.1157 75.845 17.238 75.845 16.0773C75.845 14.9312 75.4466 14.0535 74.6426 13.4659C73.8387 12.8711 72.8213 12.5737 71.5762 12.5737H68.6379V12.5665Z" fill="#263A2A"/>
<path d="M85.4856 11C87.5061 11 89.1994 11.7617 90.5583 13.2922L89.5765 14.2135C88.4737 13.0238 87.1077 12.429 85.4856 12.429C83.9844 12.429 82.7251 12.9585 81.6935 14.0249C80.6619 15.0912 80.1496 16.4114 80.1496 17.9927C80.1496 19.5741 80.6619 20.8943 81.6935 21.9606C82.7251 23.0269 83.9915 23.5565 85.4856 23.5565C86.8801 23.5565 88.0753 23.0922 89.0571 22.1637V18.8559H85.3718V17.6591H90.5583V22.7295C89.2137 24.2311 87.5204 24.9855 85.4856 24.9855C83.5931 24.9855 81.9781 24.3036 80.6476 22.9399C79.3172 21.5761 78.6484 19.9295 78.6484 17.9927C78.6484 16.0632 79.3172 14.4093 80.6476 13.0456C81.9781 11.6819 83.5931 11 85.4856 11Z" fill="#263A2A"/>
<path d="M95.2463 17.2089H101.834V18.638H95.2463V23.4183H102.254V24.8473H93.7451V11.1375H102.254V12.5665H95.2463V17.2089Z" fill="#263A2A"/>
<path d="M108.921 12.5665V24.8473H107.42V12.5665H103.251V11.1375H113.069V12.5665H108.921Z" fill="#263A2A"/>
<path d="M125.541 24.8473H122.887V19.2255H117.679V24.8473H115.025V11.1375H117.679V16.6794H122.887V11.1375H125.541V24.8473Z" fill="#263A2A"/>
<path d="M139.543 11.1375V19.0877C139.543 20.9664 139.009 22.4172 137.949 23.4473C136.889 24.4701 135.601 24.9851 134.086 24.9851C132.563 24.9851 131.268 24.4701 130.215 23.4473C129.163 22.4245 128.629 20.9664 128.629 19.0877V11.1375H131.283V19.0297C131.283 20.2193 131.553 21.0825 132.087 21.6265C132.627 22.1706 133.289 22.439 134.086 22.439C134.883 22.439 135.544 22.1706 136.085 21.6265C136.626 21.0825 136.889 20.2193 136.889 19.0297V11.1375H139.543Z" fill="#263A2A"/>
<path d="M152.818 24.8473H151.246L144.885 16.2079V24.8473H142.231V11.1375H143.79L150.164 19.7768V11.1375H152.818V24.8473Z" fill="#263A2A"/>
<path d="M160.751 13.6836V24.8473H158.097V13.6836H154.412V11.1375H164.437V13.6836H160.751Z" fill="#263A2A"/>
<path d="M168.969 16.6794H174.789V19.2255H168.969V22.3012H175.272V24.8473H166.322V11.1375H175.272V13.6836H168.969V16.6794Z" fill="#263A2A"/>
<path d="M177.342 11.1375H181.917C183.745 11.1375 185.182 11.6235 186.207 12.5955C187.239 13.5675 187.751 14.8079 187.751 16.3095C187.751 17.325 187.495 18.21 186.99 18.9571C186.484 19.7043 185.773 20.2556 184.848 20.6255C185.41 20.9882 186.079 21.7934 186.847 23.0338L188 24.8545H185.019L184.158 23.4835C183.617 22.6493 183.197 22.1126 182.899 21.8804C182.6 21.6483 182.123 21.525 181.469 21.5105H179.989V24.8618H177.335V11.1375H177.342ZM179.996 13.6836V18.9499H182.166C183.091 18.9499 183.831 18.725 184.393 18.2825C184.955 17.84 185.239 17.1799 185.239 16.3022C185.239 15.468 184.955 14.8224 184.386 14.3654C183.816 13.9084 183.076 13.6836 182.166 13.6836H179.996Z" fill="#263A2A"/>
</g>
<defs>
<clipPath id="clip0_31_676">
<rect width="144" height="14" fill="white" transform="translate(44 11)"/>
</clipPath>
</defs>
</svg>
