<svg width="150" height="131" viewBox="0 0 150 131" fill="none" xmlns="http://www.w3.org/2000/svg">
<g id="Group 39874">
<path id="Vector" d="M119.035 29.4667C108.507 30.6158 96.8259 34.4013 90.5892 43.5943C89.0095 45.9228 88.0583 48.7272 87.7576 51.6144M87.7576 51.6144C87.2996 56.012 88.3507 60.6018 90.9887 63.9955C95.1159 69.3049 101.526 72.944 108.155 70.3185C111.611 68.95 114.025 66.2384 113.307 62.3332C112.21 56.3669 104.476 52.6243 99.1278 51.8237C95.4303 51.2702 91.5956 51.2153 87.7576 51.6144ZM18.2708 83.3225C25.1029 75.2307 34.7661 67.6543 45.8749 67.614C48.6887 67.6038 51.5463 68.3807 54.1094 69.7435M54.1094 69.7435C58.0132 71.8193 61.2338 75.2542 62.576 79.3377C64.6758 85.7263 64.1151 93.0762 58.2353 97.1093C55.1705 99.2115 51.5726 99.7006 48.734 96.9241C44.3973 92.6822 45.6115 84.1762 47.9337 79.2928C49.5392 75.9164 51.6351 72.7046 54.1094 69.7435ZM54.1094 69.7435C62.8034 59.3391 74.6616 51.9955 87.85 51.5179" stroke="#32633B" stroke-width="3" stroke-linecap="round"/>
<path id="Vector 219" d="M18.6035 71.335C17.9217 74.2574 16.5793 81.0211 16.6645 84.6961" stroke="#32633B" stroke-width="3" stroke-linecap="round"/>
<path id="Vector 220" d="M16.6641 84.6963C19.658 84.491 26.5493 84.2484 30.1633 84.9208" stroke="#32633B" stroke-width="3" stroke-linecap="round"/>
</g>
</svg>
