<svg width="24" height="24" viewBox="0 0 24 24" fill="none" xmlns="http://www.w3.org/2000/svg">
<path d="M5.77778 21C5.28889 21 4.87022 20.8236 4.52178 20.4708C4.17333 20.118 3.99941 19.6944 4 19.2V6.6C4 6.105 4.17422 5.6811 4.52267 5.3283C4.87111 4.9755 5.28948 4.7994 5.77778 4.8H6.66667V3.9C6.66667 3.645 6.752 3.4311 6.92267 3.2583C7.09333 3.0855 7.3043 2.9994 7.55556 3C7.80741 3 8.01867 3.0864 8.18933 3.2592C8.36 3.432 8.44504 3.6456 8.44445 3.9V4.8H15.5556V3.9C15.5556 3.645 15.6409 3.4311 15.8116 3.2583C15.9822 3.0855 16.1932 2.9994 16.4444 3C16.6963 3 16.9076 3.0864 17.0782 3.2592C17.2489 3.432 17.3339 3.6456 17.3333 3.9V4.8H18.2222C18.7111 4.8 19.1298 4.9764 19.4782 5.3292C19.8267 5.682 20.0006 6.1056 20 6.6V19.2C20 19.695 19.8258 20.1189 19.4773 20.4717C19.1289 20.8245 18.7105 21.0006 18.2222 21H5.77778ZM5.77778 19.2H18.2222V10.2H5.77778V19.2Z" fill="#4E5C51"/>
</svg>
