<svg width="193" height="193" viewBox="0 0 193 193" fill="none" xmlns="http://www.w3.org/2000/svg">
<g id="music">
<g id="&#208;&#161;&#208;&#187;&#208;&#190;&#208;&#185; 2">
<g id="Layer 1">
<path id="Vector" d="M23.6402 102.454C23.6406 102.455 23.6409 102.455 23.6413 102.455L23.3456 102.765L23.6402 102.454ZM23.6402 102.454C23.5662 102.384 23.4915 102.314 23.4162 102.244M23.6402 102.454L23.4162 102.244M23.4162 102.244L25.802 84.6708M23.4162 102.244L20.2406 101.687C18.9824 100.869 17.5561 100.344 16.0675 100.152C14.5789 99.9595 13.066 100.105 11.6409 100.576M25.802 84.6708L25.802 84.6708L25.802 84.6708ZM25.802 84.6708L26.395 78.7539M26.395 78.7539L26.395 78.7539L26.395 78.7539ZM26.395 78.7539C26.4026 78.6598 26.3957 78.4394 26.3873 78.1737C26.373 77.7174 26.3545 77.1276 26.3983 76.8156C26.4511 76.3585 26.6537 75.9317 26.9745 75.6016M26.9745 75.6016L27.979 76.7155C27.9925 76.7033 28.0063 76.6915 28.0203 76.68M26.9745 75.6016L28.0502 76.6469C28.0398 76.6576 28.0298 76.6686 28.0203 76.68M26.9745 75.6016C27.3863 75.2303 27.9067 75.0014 28.4586 74.9486C29.1885 74.9052 29.9204 74.9085 30.6498 74.9585L44.302 85.9227M28.0203 76.68C27.9476 76.7673 27.9016 76.8741 27.8885 76.9875L27.8864 77.0059L27.8838 77.0242C27.8838 77.0244 27.8835 77.0264 27.883 77.0304L27.8813 77.0482C27.8799 77.0638 27.8784 77.0843 27.877 77.1103C27.8742 77.163 27.8723 77.2284 27.8714 77.3063C27.8698 77.4632 27.8729 77.6443 27.8779 77.8338C27.8805 77.9275 27.8833 78.0201 27.8862 78.1111L27.8867 78.1283C27.8894 78.2121 27.892 78.2957 27.894 78.3724L27.8941 78.3762C27.8975 78.504 27.9032 78.7146 27.8901 78.8751L27.889 78.8891L27.8876 78.9032L27.2946 84.8201L27.292 84.8462L27.2885 84.8723L24.6515 104.296L24.2397 107.329L22.0948 105.145C21.9178 104.965 21.7452 104.793 21.5691 104.625L21.568 104.624C20.9135 103.998 20.1992 103.439 19.4352 102.953L19.4288 102.949L19.4225 102.945C18.3529 102.249 17.1405 101.803 15.875 101.639C14.6116 101.476 13.3275 101.599 12.1178 101.998M28.0203 76.68C28.1802 76.5498 28.3742 76.4678 28.5794 76.444C29.2349 76.4064 29.892 76.41 30.547 76.4549L30.5877 76.4577L30.6285 76.4583L37.7836 76.5584L37.8067 76.5587L37.8298 76.5583L62.28 76.1482L62.2803 76.1482L67.7865 76.0566L67.8084 76.0563L67.8303 76.0553C68.0308 76.0461 68.3224 76.0119 68.5668 75.9832C68.6482 75.9737 68.7243 75.9648 68.7901 75.9576C69.1311 75.9204 69.3883 75.9031 69.5522 75.9119L69.5613 75.9123C69.7328 75.9204 69.9008 75.9633 70.055 76.038C70.1329 76.0903 70.1984 76.1593 70.2466 76.2402C70.3007 76.3309 70.3314 76.4337 70.3357 76.5393L70.3372 76.5752L70.3404 76.6109C70.3676 76.9157 70.3358 77.583 70.2745 78.332C70.2441 78.7032 70.2002 79.1549 70.1687 79.4786C70.1534 79.6358 70.1411 79.7628 70.1346 79.8357L68.7275 91.6529L68.7233 91.688L68.7208 91.7233C68.6026 93.3767 68.5085 95.0167 68.4151 96.6444C68.1508 101.253 67.8921 105.763 67.106 110.199C66.3749 114.277 65.2304 118.219 63.2732 121.967C61.8974 124.518 59.8793 126.667 57.4185 128.2C54.7875 129.83 51.8485 130.571 49.1269 130.016L49.1258 130.016C44.7947 129.135 41.9164 125.953 40.8975 122.205L40.8975 122.205L40.895 122.196C40.3575 120.267 40.3521 118.228 40.8794 116.296C41.4067 114.364 42.447 112.61 43.8901 111.221L43.8946 111.217C45.1513 109.997 46.6978 109.117 48.3883 108.66C50.057 108.236 51.7904 108.132 53.4976 108.351L57.1974 109.139L58.6966 109.458L58.9834 107.952L59.3263 106.152C59.8355 104.326 60.2477 102.474 60.5612 100.604C60.8795 98.7151 61.0884 96.8091 61.1869 94.8958L61.1912 94.8112L61.186 94.7266L60.7838 88.1857L60.7794 88.1144L60.7682 88.0438L60.633 87.1876L60.4395 85.9623L59.1995 85.9226C58.6123 85.9038 57.8308 85.8742 57.5471 85.8494L57.5092 85.8461L57.4711 85.8447L48.9857 85.5353L48.9313 85.5333L48.8768 85.5352C47.3335 85.591 45.8114 85.7284 44.302 85.9227M12.1178 101.998C12.1197 101.997 12.1217 101.997 12.1237 101.996L11.6409 100.576M12.1178 101.998C10.9128 102.409 9.80143 103.055 8.84805 103.898C7.89311 104.743 7.1158 105.77 6.56139 106.918L6.55826 106.924L6.55508 106.931C5.6057 108.85 5.16124 111.448 5.31287 114.189C5.46403 116.922 6.20118 119.669 7.4794 121.868C9.34493 125.077 12.2101 127.069 16.0311 126.825M12.1178 101.998C12.1158 101.999 12.1139 101.999 12.112 102L11.6409 100.576M11.6409 100.576L16.0311 126.825M16.0311 126.825C16.0274 126.825 16.0237 126.825 16.02 126.825L16.1386 128.321L16.0415 126.824C16.038 126.824 16.0346 126.824 16.0311 126.825ZM16.0311 126.825C18.3034 126.642 20.4718 125.794 22.2653 124.386L22.2675 124.384C24.0458 122.994 25.5593 121.295 26.7356 119.368L26.7407 119.36L26.7407 119.36C28.415 116.658 29.7277 113.749 30.6453 110.706L30.6476 110.698C32.0009 106.295 32.6344 101.698 33.2235 96.7312M16.0311 126.825L32.0815 111.138C33.4795 106.59 34.1247 101.869 34.7142 96.898L35.3963 90.4276M33.2235 96.7312L33.2224 96.7411L34.7142 96.898L33.2246 96.7217C33.2242 96.7249 33.2238 96.7281 33.2235 96.7312ZM33.2235 96.7312L33.8972 90.3395M33.8972 90.3395L33.8963 90.4087L35.3963 90.4276M33.8972 90.3395L33.9153 88.9155L33.9315 87.6463L35.186 87.4521C35.9541 87.3331 37.2319 87.1204 37.4847 87.0699L37.4911 87.0686C39.7327 86.6304 42.0135 86.2161 44.302 85.9227M33.8972 90.3395L33.9044 90.2706L35.3963 90.4276M35.3963 90.4276L44.302 85.9227M44.302 85.9227L44.4925 87.4105L44.3012 85.9229C44.3015 85.9228 44.3017 85.9228 44.302 85.9227ZM69.6323 74.4144L69.6323 74.4141L69.6323 74.4144Z" stroke="#F18B41" stroke-width="3"/>
</g>
</g>
<g id="&#208;&#161;&#208;&#187;&#208;&#190;&#208;&#185; 2_2">
<g id="Layer 1_2">
<path id="Vector_2" d="M156.227 27.3152L156.312 27.1709L156.362 27.0116L158.019 21.7891L158.089 21.5678V21.3356V21.2789V20.2939L157.185 19.9024L156.457 19.5874L156.457 19.5874L156.445 19.5821L149.731 16.7472L149.613 16.6976L149.489 16.6686L140.073 14.4636L140.028 14.4531L139.982 14.4453C139.857 14.4241 139.284 14.3024 138.701 14.1772L137.372 13.8918L136.958 15.1867L136.818 15.6234L134.288 20.6073C132.238 24.5236 130.268 28.1075 127.776 31.2983L127.776 31.2983L127.77 31.3051C126.036 33.5523 124.012 35.561 121.753 37.2791C119.767 38.7851 117.452 39.9509 115.104 40.3924L115.097 40.3937L115.09 40.3951C113.413 40.7274 111.68 40.6436 110.043 40.1513C106.555 39.0747 104.661 36.3434 104.102 32.8653L104.101 32.8611C103.724 30.5579 103.995 27.9584 104.767 25.5603C105.541 23.1544 106.781 21.0736 108.22 19.7447L108.227 19.739L108.233 19.7332C109.112 18.9034 110.147 18.2565 111.278 17.8302C112.407 17.4047 113.609 17.2074 114.815 17.2497C116.032 17.3046 117.222 17.6317 118.296 18.2072C119.332 18.7619 120.235 19.5336 120.944 20.469L121.667 22.0081L122.925 24.6853L124.341 22.0887L131.811 8.39613L131.823 8.37486L131.834 8.35322L134.155 3.75125L134.164 3.73244L134.173 3.71337C134.235 3.58222 134.298 3.40378 134.336 3.29638L134.338 3.29123C134.366 3.2119 134.388 3.14939 134.41 3.08649C134.436 3.01271 134.462 2.93839 134.499 2.83575C134.556 2.6758 134.611 2.52391 134.663 2.39387C134.689 2.32934 134.711 2.2759 134.73 2.23353C134.739 2.21265 134.747 2.19645 134.753 2.18446C134.758 2.17346 134.761 2.16818 134.761 2.16764L134.761 2.1676L134.767 2.15759L134.772 2.14746C134.897 1.90989 135.097 1.72004 135.34 1.60665C135.555 1.51664 135.789 1.48274 136.021 1.50825L136.031 1.50932L136.041 1.51027C136.16 1.52183 136.501 1.61641 136.999 1.80164C137.312 1.91806 137.565 2.02167 137.781 2.11014C137.895 2.15687 137.999 2.19937 138.096 2.23729C138.098 2.23808 138.1 2.23887 138.102 2.23966L143.86 4.544L143.883 4.55319L143.906 4.56162L163.988 11.8397L163.992 11.841L168.371 13.4407L170.773 14.5856C170.826 14.6918 170.864 14.8053 170.886 14.923C170.926 15.1321 170.912 15.3476 170.847 15.5501L170.839 15.5758L170.832 15.6017C170.758 15.8606 170.519 16.4127 170.224 17.0343C170.087 17.3232 169.952 17.5977 169.843 17.8194C169.819 17.868 169.795 17.9165 169.771 17.9632C169.71 18.0868 169.654 18.1989 169.619 18.2718L164.799 27.4616L164.783 27.4931L164.768 27.5254C164.159 28.8349 163.573 30.139 162.993 31.432C161.328 35.1409 159.704 38.759 157.67 42.1541L157.665 42.1624L157.66 42.1709C155.805 45.3619 153.472 48.2502 150.744 50.7357C148.731 52.4733 146.299 53.6555 143.689 54.1656C140.842 54.7189 138.027 54.3671 135.831 52.9705L135.825 52.9666C134.23 51.9628 132.951 50.5288 132.135 48.8297C131.319 47.1306 131 45.2355 131.213 43.3627L131.215 43.3473L131.217 43.3319C131.391 41.4603 132.069 39.671 133.178 38.1538C134.288 36.6365 135.787 35.4481 137.517 34.7145L137.524 34.7115C139.042 34.0587 140.7 33.8029 142.344 33.968C143.925 34.1525 145.456 34.6332 146.859 35.3849L148.881 36.6913L150.129 37.4972L150.947 36.2577L151.382 35.5994L151.404 35.5653L151.425 35.5301L156.227 27.3152Z" stroke="#F18B41" stroke-width="3"/>
</g>
</g>
<g id="&#208;&#161;&#208;&#187;&#208;&#190;&#208;&#185; 2_3">
<g id="Layer 1_3">
<path id="Vector_3" d="M190.02 119.007L190.003 119.033L189.987 119.06C189.791 119.397 189.3 120.037 188.755 120.703C188.344 121.205 187.965 121.648 187.759 121.888C187.71 121.945 187.671 121.991 187.643 122.024L178.666 132.207L178.643 132.232L178.622 132.258C177.452 133.712 176.309 135.171 175.172 136.621C171.918 140.773 168.721 144.852 165.13 148.522L165.129 148.522C161.771 151.955 158.116 154.978 153.892 157.298C151.017 158.836 147.787 159.585 144.529 159.469C140.971 159.324 137.748 158.052 135.628 155.61C132.354 151.835 131.888 146.742 133.605 142.301L133.606 142.298C135.291 137.912 139.043 134.382 143.862 133.551L143.871 133.549L143.879 133.548C145.85 133.186 147.882 133.362 149.761 134.06C151.568 134.773 153.211 135.844 154.593 137.209L156.784 139.781L157.806 140.98L158.954 139.9C159.424 139.458 159.867 139.047 160.057 138.882C161.702 137.495 163.275 136.024 164.77 134.475L164.771 134.475C166.268 132.923 167.68 131.292 169.001 129.588L169.049 129.526L169.091 129.459L173.006 123.139L173.044 123.077L173.076 123.012L173.391 122.372L173.926 121.287L172.978 120.535C172.547 120.193 172.083 119.817 171.91 119.662L171.884 119.638L171.857 119.616L164.869 113.926L164.761 113.838L164.639 113.772L154.205 108.09L154.171 108.072L154.136 108.055C153.933 107.958 153.044 107.501 152.345 107.136L151.165 106.52L150.413 107.618L149.704 108.652L144.917 114.224C141.159 118.499 137.583 122.406 133.529 125.684L133.522 125.69C130.702 127.999 127.595 129.933 124.278 131.446C121.448 132.723 118.358 133.485 115.471 133.35L115.461 133.35L115.452 133.349C113.354 133.279 111.314 132.649 109.543 131.525C105.852 129.147 104.555 125.105 105.187 120.512L105.187 120.508C105.586 117.55 106.812 114.452 108.523 111.761C110.239 109.062 112.373 106.878 114.501 105.659C117.358 104.024 120.41 103.725 123 104.519C125.68 105.35 127.974 107.33 129.133 110.554C129.44 111.419 129.671 112.309 129.823 113.214L130.335 116.26L132.412 113.974L146.58 98.3885L146.596 98.3707L146.611 98.3523L150.992 93.2103C151.121 93.0616 151.255 92.8624 151.334 92.7446C151.402 92.6422 151.482 92.5202 151.562 92.3987C151.602 92.3376 151.642 92.2767 151.68 92.2184C151.948 91.8119 152.15 91.5223 152.249 91.4136L152.259 91.4025L152.269 91.3913C152.455 91.1783 152.703 91.0292 152.978 90.9648C153.231 90.924 153.491 90.9516 153.731 91.0451L153.731 91.0451L153.744 91.05C153.902 91.1103 154.279 91.3433 154.786 91.7173C155.105 91.9532 155.359 92.154 155.575 92.3249C155.693 92.4187 155.801 92.5035 155.901 92.5802C155.903 92.5814 155.904 92.5826 155.906 92.5838L161.942 97.2584L161.962 97.2739L161.983 97.2886L183.212 112.617L183.215 112.619L187.94 116.046L188.009 116.095L188.083 116.137C188.626 116.444 189.152 116.78 189.66 117.143C189.87 117.32 190.042 117.537 190.165 117.781C190.232 117.975 190.256 118.181 190.236 118.385C190.214 118.607 190.14 118.82 190.02 119.007Z" stroke="#F18B41" stroke-width="3"/>
</g>
</g>
</g>
</svg>
