<svg width="90" height="90" viewBox="0 0 90 90" fill="none" xmlns="http://www.w3.org/2000/svg">
<g id="spark, sparks, sparkle, stars, 30">
<path id="Vector" d="M15.2768 30.1009C17.3023 31.1184 19.3273 32.3496 21.0263 34.0529C21.8633 34.9061 22.5988 35.8533 23.2182 36.8756C23.8207 37.8815 24.3325 38.939 24.7476 40.0356C25.608 42.3406 26.0749 44.7252 26.4372 47.0619C26.5321 47.6417 26.6177 48.2211 26.6983 48.7986L26.9303 50.528L24.8171 50.7911C24.4783 48.071 24.2128 45.2758 24.4454 42.4402C24.6668 39.6172 25.4087 36.7405 26.9139 34.2208C27.2917 33.5873 27.7168 32.9833 28.1857 32.4139C28.6558 31.8339 29.1782 31.2984 29.7463 30.814C29.8846 30.6867 30.035 30.5762 30.1821 30.4609C30.3313 30.3487 30.4748 30.2269 30.6293 30.1232C30.9375 29.9143 31.2431 29.6987 31.5657 29.5171C32.1985 29.1405 32.8581 28.8109 33.5392 28.531C34.208 28.2544 34.8916 28.0152 35.5869 27.8143C36.2756 27.622 36.9669 27.4442 37.6564 27.3051C39.0368 27.0118 40.4085 26.8142 41.761 26.6199L41.8943 29.1831L40.6891 29.1572C39.3795 29.1326 38.0581 29.0624 36.7264 28.9548C35.3634 28.8569 34.0096 28.6567 32.6764 28.3561C31.271 28.0421 29.9243 27.5071 28.6865 26.7711C28.047 26.3761 27.4558 25.9079 26.9249 25.3759C26.3961 24.841 25.9358 24.2425 25.5547 23.5941C24.8017 22.3272 24.3399 21.0018 23.9452 19.7269C23.5467 18.4441 23.2147 17.1415 22.9507 15.8244C22.6802 14.5095 22.4869 13.1799 22.372 11.8424C22.3166 11.174 22.2735 10.5047 22.2526 9.83477L22.2372 9.33243C22.2333 9.16503 22.2375 8.99727 22.2234 8.83012C22.2042 8.49552 22.2 8.1604 22.1878 7.82529L24.46 7.93286C24.269 10.3779 24.0647 12.8647 23.5935 15.3637C23.5292 15.6755 23.4704 15.9886 23.4011 16.2997L23.168 17.2314L22.9018 18.1594L22.599 19.0813C22.1699 20.3196 21.6222 21.5135 20.9634 22.6465C19.6896 24.7881 17.9426 26.6097 15.856 27.9718C15.0494 28.5142 14.1668 28.9342 13.2372 29.2181C12.8977 29.3154 12.551 29.3854 12.2004 29.4275C12.0441 29.4445 11.8969 29.4556 11.7586 29.4608L11.6565 29.4637L11.5739 29.4534C11.5159 29.4455 11.4599 29.4378 11.406 29.4305C10.7375 29.3328 10.3663 29.2165 10.8814 28.7101C10.9559 28.6399 11.0347 28.5743 11.1173 28.5138C11.1605 28.4802 11.2215 28.4422 11.2605 28.4103C11.2967 28.3801 11.3345 28.3485 11.3739 28.3155C11.5314 28.1849 11.7217 28.0573 11.9317 27.9062C12.14 27.7515 12.3822 27.6045 12.6364 27.4227C12.7654 27.3366 12.9002 27.2467 13.0408 27.1528C13.1787 27.0552 13.3231 26.956 13.4738 26.8553C14.2541 26.3202 14.9985 25.7345 15.7022 25.1021C16.421 24.4665 17.0896 23.7764 17.7023 23.0379C18.5373 22.0195 19.2392 20.8988 19.791 19.703C20.3488 18.4817 20.7925 17.2115 21.1166 15.9086C21.8124 13.2827 22.1269 10.5206 22.4222 7.73662L22.4223 7.73504C22.4469 7.50439 22.5587 7.29186 22.7349 7.14097C22.911 6.99008 23.1382 6.91225 23.3699 6.92342C23.6016 6.93459 23.8202 7.03392 23.981 7.20106C24.1419 7.3682 24.2327 7.59051 24.2349 7.82245C24.2391 8.27408 24.2241 8.72659 24.2558 9.17785C24.2844 9.62894 24.3183 10.0795 24.364 10.5289C24.4513 11.428 24.5811 12.3217 24.7291 13.2107C25.0222 14.9876 25.4516 16.7393 26.0137 18.4503C26.3732 19.6204 26.8402 20.7546 27.4087 21.8387C27.6761 22.3286 27.9913 22.7909 28.3497 23.2187C28.6995 23.6208 29.0869 23.9884 29.5068 24.3165C29.9008 24.6114 30.3192 24.8724 30.7574 25.0965C31.2158 25.3222 31.6889 25.5165 32.1736 25.6783C33.1878 26.002 34.23 26.2301 35.2867 26.3596C37.4511 26.6412 39.7004 26.6824 41.9628 26.7659L41.9761 26.7664C42.2595 26.7768 42.5287 26.8934 42.7302 27.093C42.9316 27.2926 43.0507 27.5607 43.0638 27.844C43.0769 28.1273 42.983 28.4052 42.8008 28.6225C42.6185 28.8399 42.3613 28.9808 42.08 29.0173C40.3623 29.2402 38.6722 29.4734 37.048 29.8519C35.4304 30.2385 33.8641 30.7452 32.4808 31.5405C31.8908 31.8775 31.3337 32.2691 30.8168 32.7102C30.3031 33.1612 29.8325 33.659 29.4111 34.1972C28.5699 35.3103 27.9086 36.5485 27.4513 37.8666C26.9833 39.204 26.6814 40.5939 26.5523 42.0051C26.4182 43.4394 26.3884 44.8816 26.4631 46.3203C26.5232 47.7208 26.6656 49.1297 26.8309 50.5435L26.8319 50.5529C26.8615 50.8065 26.7894 51.0614 26.6313 51.2619C26.4732 51.4623 26.242 51.5919 25.9886 51.6222C25.7351 51.6525 25.4799 51.5811 25.279 51.4235C25.0781 51.266 24.9479 51.0353 24.9169 50.7819C24.6393 48.511 24.3464 46.2596 23.8214 44.0893C23.5748 43.0091 23.2597 41.9457 22.878 40.9056C22.4969 39.8839 22.0205 38.9003 21.4551 37.9679C21.3068 37.7425 21.1689 37.5087 21.0129 37.2891L20.5305 36.6409C20.1912 36.2238 19.8304 35.8248 19.4495 35.4453C18.6612 34.6899 17.7973 34.0174 16.8715 33.4387C16.4053 33.1427 15.9247 32.8636 15.4338 32.5976C15.1884 32.4647 14.9406 32.3348 14.6904 32.2079L14.3136 32.0194L14.1253 31.9271L13.9463 31.8469C13.7129 31.7347 13.4567 31.6438 13.2078 31.5455C12.9489 31.4611 12.6958 31.3652 12.43 31.2925C11.9068 31.1298 11.3665 31.0063 10.8266 30.8893C9.77944 30.671 8.71697 30.5338 7.64867 30.479C6.61324 30.4281 5.59151 30.489 4.74232 30.783L4.49824 29.812L4.49745 29.7478H4.49842H4.5044H4.51239H4.52839L4.56038 29.748C4.58113 29.7484 4.60239 29.7489 4.63227 29.7474L4.79751 29.742L5.1336 29.7281C5.35904 29.718 5.58318 29.708 5.80605 29.6981C6.25352 29.6803 6.69552 29.6627 7.13205 29.6453C8.00657 29.6137 8.86034 29.5948 9.69452 29.5772C9.97833 29.5665 10.2626 29.5776 10.5447 29.6103C10.6541 29.6191 10.7195 29.6521 10.8204 29.6517C10.8861 29.6499 10.9508 29.6682 11.0058 29.7041L11.1714 29.5108C11.148 29.599 11.1156 29.6379 11.131 29.6458C11.1416 29.6537 11.1991 29.6288 11.2516 29.5444C11.258 29.5343 11.262 29.5228 11.2635 29.511C11.2649 29.4991 11.2637 29.487 11.2599 29.4757C11.2561 29.4643 11.2499 29.4539 11.2416 29.4453C11.2333 29.4366 11.2233 29.4299 11.2121 29.4256C11.2009 29.4213 11.1889 29.4195 11.177 29.4203C11.1651 29.4212 11.1535 29.4247 11.143 29.4306C11.1326 29.4364 11.1236 29.4445 11.1167 29.4543C11.1097 29.464 11.1051 29.4752 11.1029 29.487L11.0514 29.7784C11.0418 29.8323 10.969 29.9146 10.8339 30.0061C10.7401 30.0825 10.638 30.1481 10.5294 30.2016C10.1949 30.3652 9.84212 30.4883 9.47846 30.5684C8.69069 30.7496 7.89731 30.9098 7.09213 31.0621C6.68978 31.1379 6.28464 31.2109 5.8767 31.2811L5.2593 31.3834L4.94201 31.432L4.77686 31.4554C4.71482 31.4636 4.62206 31.4719 4.54581 31.4784C4.27267 31.502 3.9999 31.4292 3.77476 31.2727C3.54963 31.1163 3.38632 30.886 3.31313 30.6218C3.23995 30.3576 3.26149 30.0761 3.37403 29.8261C3.48657 29.5761 3.68301 29.3734 3.92933 29.253L4.00808 29.215C4.64255 28.9198 5.3165 28.7181 6.00887 28.6163C6.32958 28.5774 6.65671 28.5273 6.97119 28.5158C7.12959 28.5071 7.28961 28.4942 7.44693 28.4901L7.91653 28.4864C9.16264 28.4987 10.4039 28.6437 11.6193 28.9191C12.2334 29.0516 12.8405 29.2148 13.4383 29.408L13.8917 29.5593L14.3471 29.7326C14.4977 29.7864 14.6528 29.8595 14.8059 29.926L15.0357 30.0279L15.2405 30.1266C15.2523 30.1176 15.2634 30.1094 15.2768 30.1009Z" fill="#F18B41"/>
<path id="Vector_2" d="M69.1169 35.355C70.1729 36.6212 71.0245 38.0446 71.6408 39.5738C71.7163 39.7653 71.7977 39.954 71.8672 40.1476L72.0526 40.7375C72.1114 40.9348 72.1806 41.1287 72.23 41.3287L72.3659 41.9325C72.4073 42.1345 72.4635 42.3328 72.4916 42.5375L72.5755 43.1511L72.6167 43.4577C72.6308 43.5589 72.6445 43.6611 72.6516 43.7736C72.6682 43.9941 72.6767 44.222 72.671 44.4592C72.6653 44.8856 72.596 45.3088 72.4653 45.7147C72.3841 45.9512 72.2754 46.1774 72.1416 46.3887C71.9925 46.6138 71.8119 46.8164 71.6052 46.9902L71.5905 47.0025C71.4194 47.1462 71.2089 47.2347 70.9865 47.2565C70.7642 47.2783 70.5404 47.2323 70.3447 47.1247C70.1489 47.017 69.9903 46.8527 69.8897 46.6532C69.789 46.4538 69.751 46.2286 69.7807 46.0071C69.9192 44.9813 70.1158 43.9642 70.3698 42.9607C70.7829 41.283 71.423 39.6695 72.2724 38.1648C73.1428 36.6265 74.2802 35.2555 75.6314 34.116C77.0148 32.973 78.6126 32.1179 80.331 31.6008C82.0963 31.076 83.9626 30.9883 85.7693 31.3452C86.0346 31.4 86.2764 31.5359 86.4612 31.734C86.6461 31.9322 86.7647 32.1828 86.8009 32.4514C86.8371 32.7199 86.7889 32.993 86.6631 33.233C86.5373 33.473 86.3401 33.668 86.0987 33.791L86.0748 33.803C85.4868 34.0935 84.8567 34.2897 84.2077 34.3843C83.611 34.468 83.0075 34.492 82.406 34.4561C81.8296 34.4275 81.2804 34.3592 80.7525 34.2835C80.2261 34.2061 79.7237 34.1308 79.1784 34.0312C78.3941 33.8992 77.6265 33.6821 76.8893 33.3837C76.4858 33.2143 76.0999 33.0056 75.7373 32.7606C75.3671 32.5079 75.0253 32.2159 74.718 31.8896C74.1474 31.2643 73.6812 30.5513 73.3373 29.7778C73.0187 29.0633 72.7686 28.3202 72.5904 27.5584C71.8712 24.6065 71.9319 21.5183 72.7667 18.597L72.7679 18.5927C72.841 18.3381 72.9869 18.1104 73.1878 17.9377C73.3886 17.765 73.6356 17.6548 73.8982 17.6207C74.1609 17.5866 74.4279 17.63 74.6661 17.7457C74.9044 17.8614 75.1037 18.0443 75.2393 18.2718C75.6647 19.0108 75.8949 19.8458 75.9084 20.6984C75.9221 21.4457 75.8296 22.1912 75.6336 22.9126C75.5469 23.2606 75.4346 23.5824 75.3276 23.9076C75.2081 24.2284 75.0915 24.5509 74.9496 24.862C74.6789 25.489 74.3613 26.0948 73.9997 26.6742C72.5624 29.0143 70.479 30.8888 68.0006 32.0716C66.4239 32.8107 64.7118 33.2167 62.9711 33.2644C62.2881 33.2881 61.6061 33.1944 60.9548 32.9875C60.8227 32.9433 60.6992 32.8976 60.584 32.8496C60.4691 32.7968 60.3624 32.7428 60.264 32.6878C60.0838 32.5914 59.9161 32.4732 59.7648 32.3358C59.3667 31.9771 59.4423 31.6884 59.8377 31.4997C60.2346 31.315 60.9517 31.2174 61.926 31.1196L62.3928 31.0692L62.8651 31.0061C63.1812 30.9579 63.5014 30.9177 63.8204 30.8579C64.4572 30.7453 65.0866 30.5949 65.7055 30.4073C66.8997 30.0358 68.0208 29.4611 69.0196 28.7084C71.0379 27.1913 72.5038 25.055 73.1933 22.626C73.3579 22.0726 73.4415 21.4983 73.4413 20.9209C73.4486 20.4444 73.3207 19.9755 73.0723 19.5688L75.1953 19.2896C74.9791 20.1489 74.8439 21.0267 74.7916 21.9112C74.6905 23.5445 74.9132 25.2239 75.1944 26.767C75.3893 27.8666 75.7305 28.9076 76.285 29.708C76.5461 30.0928 76.877 30.4253 77.2606 30.6884C77.6789 30.9543 78.1346 31.1563 78.6125 31.2878C79.1575 31.4384 79.7111 31.556 80.2703 31.6401C80.8661 31.7364 81.4591 31.8331 82.0172 31.89C83.1398 32.0109 84.1738 31.9651 84.9643 31.5777L85.2374 33.775L84.8455 33.7006L84.6498 33.6619L84.4511 33.6385L84.0535 33.5904L83.6519 33.5702C82.7389 33.5355 81.8261 33.6425 80.9459 33.8872C80.0497 34.1387 79.1905 34.5069 78.3902 34.9822C77.5849 35.4584 76.8415 36.0324 76.1771 36.691C75.5062 37.3596 74.9104 38.0995 74.4001 38.8974C72.9989 41.0623 72.1725 43.6258 71.8293 46.2457L70.2791 45.4104C70.3716 45.3326 70.4415 45.2313 70.4816 45.1173C70.5461 44.9397 70.5829 44.7532 70.5907 44.5644C70.6029 44.3299 70.5967 44.0947 70.5721 43.8611L70.4607 43.0795C70.4225 42.8185 70.3697 42.5598 70.3025 42.3047L70.2138 41.9184C70.1868 41.7888 70.1361 41.6655 70.0986 41.5386C70.0146 41.2875 69.9431 41.0317 69.8502 40.7832L69.5458 40.0462C69.1048 39.0723 68.5564 38.1507 67.9109 37.2985C67.25 36.452 66.5021 35.6772 65.6793 34.9869C64.6404 34.1374 63.5095 33.407 62.3079 32.8093C62.2357 32.7715 62.1647 32.7307 62.0919 32.6949L61.8703 32.5974L61.4299 32.398C61.1407 32.2511 60.8395 32.1537 60.5443 32.0349L60.1019 31.8582C59.957 31.8061 59.8135 31.7592 59.6691 31.7226C59.3838 31.6339 59.0785 31.6326 58.7925 31.7189C58.7225 31.7456 58.6589 31.7785 58.6086 31.8013C58.6076 31.8017 58.6066 31.8024 58.6059 31.8032C58.6051 31.8041 58.6045 31.8051 58.6041 31.8061L58.5983 31.8223C58.5794 31.8812 58.5834 31.9451 58.6096 32.0011C58.6333 32.0525 58.6672 32.0985 58.7094 32.1363C58.7854 32.2043 58.8807 32.2472 58.982 32.2591C59.0299 32.2655 59.0786 32.2617 59.125 32.248C59.1664 32.24 59.2072 32.229 59.2471 32.2151C59.3142 32.1897 59.3632 32.1737 59.391 32.1916C59.4178 32.2083 59.4258 32.2612 59.3862 32.3512C59.3572 32.4063 59.3186 32.4557 59.2722 32.4972C59.2165 32.5638 59.144 32.6143 59.0621 32.6434C58.866 32.7228 58.648 32.7299 58.4471 32.6634C58.2985 32.6141 58.1652 32.5273 58.0601 32.4114C57.9847 32.3272 57.9251 32.2301 57.8844 32.1246C57.8377 31.9996 57.8165 31.8665 57.8222 31.7332C57.826 31.632 57.859 31.5341 57.917 31.4512L58.0626 31.2425C58.1389 31.1327 58.2284 31.0327 58.329 30.9447C58.3851 30.8956 58.4447 30.8507 58.5073 30.8103C58.574 30.7728 58.6432 30.74 58.7144 30.7119C59.0511 30.584 59.4092 30.5221 59.7692 30.5294C60.0506 30.5307 60.3313 30.5553 60.6086 30.6031L61.3709 30.7245L61.5627 30.7574L61.7506 30.8049L62.1277 30.9021C63.1445 31.1664 64.1263 31.5502 65.0529 32.0453C66.5834 32.9021 67.9466 34.0281 69.077 35.3692C69.0899 35.3645 69.1019 35.3603 69.1169 35.355Z" fill="#F18B41"/>
<path id="Vector_3" d="M45.382 62.5594L46.185 63.0089L46.9576 63.51L47.1498 63.6363L47.3343 63.7746L47.7027 64.0516C47.8247 64.1448 47.949 64.2349 48.0687 64.331L48.4176 64.6331C48.8842 65.0339 49.3281 65.4607 49.7469 65.9113L50.349 66.61C50.5463 66.8453 50.72 67.0986 50.9056 67.3424C51.6171 68.335 52.2205 69.4008 52.7052 70.5218C53.1742 71.6414 53.5296 72.8052 53.7661 73.9958C53.82 74.3123 53.8858 74.6269 53.9265 74.9454L54.0326 75.9032L54.0794 76.8662C54.096 77.187 54.0749 77.5092 54.0739 77.8304C54.0321 79.1175 53.8487 80.3962 53.5272 81.6432L53.2758 82.5206C53.2034 82.7728 53.0425 82.9903 52.8225 83.1331C52.6026 83.276 52.3384 83.3345 52.0787 83.2981C51.819 83.2616 51.5812 83.1326 51.409 82.9347C51.2369 82.7368 51.1421 82.4834 51.1419 82.2211L51.1423 82.1704C51.1448 79.3387 51.1387 76.4188 51.6829 73.4858C51.9504 72.0014 52.388 70.5526 52.987 69.1683C53.599 67.7456 54.4379 66.4317 55.4712 65.2779C56.531 64.1353 57.776 63.1798 59.1539 62.4516C60.4911 61.7535 61.8979 61.1975 63.3511 60.7927C64.0655 60.5887 64.7817 60.4144 65.5005 60.2602C66.2212 60.1078 66.9593 59.9736 67.7216 59.8903C68.5009 59.7982 69.2868 59.7749 70.0702 59.8207C70.8919 59.8692 71.7041 60.0228 72.4868 60.2778C72.7447 60.3619 72.9704 60.5235 73.133 60.7407C73.2957 60.9578 73.3873 61.2198 73.3955 61.491C73.4036 61.7622 73.3279 62.0292 73.1786 62.2557C73.0294 62.4823 72.8138 62.6572 72.5614 62.7566L72.5331 62.7676C71.3007 63.2263 69.9976 63.466 68.6826 63.476C67.2873 63.4845 65.8939 63.3737 64.5174 63.1448C63.1527 62.9554 61.8016 62.6787 60.4724 62.3162C59.7854 62.1259 59.1108 61.8939 58.4521 61.6213C57.7737 61.3461 57.1191 61.0154 56.495 60.6328C55.8547 60.242 55.2538 59.7902 54.7008 59.2835C54.1505 58.774 53.6524 58.211 53.2138 57.6027C52.3799 56.427 51.7029 55.1476 51.1998 53.7968C50.2109 51.2018 49.6 48.4782 49.3859 45.7094C49.3609 45.3641 49.3394 45.0185 49.3275 44.6724C49.3198 44.4995 49.3142 44.3264 49.312 44.1533C49.3093 43.9787 49.303 43.8171 49.3066 43.6047C49.3065 43.1383 49.3755 42.6745 49.5112 42.2283C49.6043 41.9334 49.7432 41.6551 49.923 41.4035C50.1377 41.1061 50.4153 40.8595 50.736 40.6814L50.7496 40.674C50.9065 40.5884 51.0788 40.5345 51.2566 40.5155C51.4343 40.4965 51.614 40.5127 51.7855 40.5632C51.957 40.6136 52.1169 40.6974 52.256 40.8096C52.3952 40.9219 52.5108 41.0604 52.5964 41.2173C52.6883 41.3874 52.7436 41.5748 52.7588 41.7675C53.1604 47.2839 51.7365 52.7793 48.7066 57.4067C48.0012 58.4818 47.165 59.4653 46.2172 60.3344C45.7319 60.773 45.212 61.1719 44.6626 61.5269C44.1109 61.8838 43.5272 62.1886 42.9191 62.4374C41.9547 62.8469 40.9103 63.0333 39.8638 62.9827C39.1929 62.9578 38.5378 62.772 37.9538 62.4409C37.3256 62.0408 37.45 61.7646 37.9972 61.6359C38.2753 61.5556 38.664 61.5059 39.1522 61.4127C39.7422 61.3027 40.3244 61.1545 40.8952 60.969C41.7713 60.6728 42.5996 60.2506 43.354 59.7156C44.1389 59.1535 44.8559 58.5022 45.4906 57.7748C46.4069 56.7112 47.1936 55.5425 47.834 54.2933C48.4977 53.0391 49.0368 51.7229 49.4436 50.3634C50.263 47.6442 50.5563 44.7935 50.3078 41.9644L51.9264 42.8334C51.9268 42.8343 51.9292 42.8377 51.9268 42.8338L51.9206 42.8251C51.9217 42.8269 51.9229 42.8286 51.9242 42.8302C51.9276 42.8345 51.9308 42.8375 51.929 42.8353V42.8386C51.9198 42.8518 51.912 42.866 51.9059 42.8809C51.8637 42.9804 51.8365 43.0856 51.825 43.1931C51.8036 43.3617 51.7951 43.5316 51.7996 43.7015L51.8235 44.3449C51.8681 45.2197 51.9607 46.091 52.0875 46.9563C52.348 48.6841 52.7836 50.3809 53.3877 52.0206C53.8048 53.1851 54.3491 54.3001 55.0106 55.3453C55.3264 55.8367 55.6805 56.3024 56.0695 56.7381C56.2567 56.9479 56.4544 57.1481 56.6617 57.338C56.7664 57.4306 56.864 57.53 56.9713 57.6192L57.2933 57.886C58.2584 58.6256 59.34 59.1991 60.4936 59.5831C61.714 59.9957 62.9668 60.3053 64.2389 60.5085C65.5136 60.7455 66.8033 60.8934 68.0985 60.9513C69.3016 61.0095 70.5045 60.8351 71.6415 60.4375L71.6824 62.6396C70.5568 62.2568 69.2855 62.1941 67.9797 62.3256C67.3266 62.3874 66.6635 62.4955 65.9935 62.6244C65.3226 62.7554 64.6561 62.9028 64.001 63.0724C62.5975 63.4181 61.2433 63.9399 59.9707 64.6252C58.7337 65.2888 57.6364 66.185 56.739 67.2644C55.8498 68.3728 55.1473 69.6188 54.6592 70.9534C54.1561 72.3199 53.8048 73.7376 53.6116 75.1809C53.2871 77.4542 53.2525 79.8023 53.2224 82.1819L51.3011 81.8665C52.5809 78.094 52.1345 73.7457 50.2192 70.209C50.094 69.9912 49.9829 69.7641 49.8466 69.553L49.437 68.9198C49.2977 68.7105 49.1382 68.5163 48.99 68.3133C48.9133 68.214 48.8424 68.1095 48.761 68.0142L48.5137 67.7304C48.1858 67.35 47.8388 66.9864 47.4742 66.6409C47.0917 66.3144 46.721 65.9724 46.3066 65.6831C46.1079 65.5274 45.9014 65.3819 45.688 65.2471C45.4743 65.1125 45.2657 64.9691 45.0481 64.8405L44.3836 64.4732C44.1637 64.3473 43.9273 64.2533 43.7001 64.1413C42.7786 63.7126 41.8151 63.3809 40.8251 63.1514C38.466 62.5975 36.0162 62.5499 33.6374 63.0117L33.6125 62.0676C35.037 62.5008 36.5323 62.6525 38.0148 62.5142C38.8562 62.435 39.2834 62.4123 39.2799 62.5934C39.2742 62.6733 39.1631 62.8119 38.9235 62.9697C38.7781 63.0654 38.626 63.1504 38.4683 63.2239C38.3761 63.2688 38.2757 63.3142 38.1659 63.3565C38.111 63.3775 38.0546 63.4019 37.9951 63.421C37.9351 63.4384 37.8731 63.4556 37.809 63.4725C36.3222 63.8631 34.7689 63.9303 33.2539 63.6696C33.0032 63.6257 32.7744 63.499 32.6039 63.3099C32.4335 63.1209 32.3312 62.8802 32.3133 62.6262C32.2955 62.3723 32.3632 62.1197 32.5056 61.9086C32.6479 61.6976 32.8568 61.5403 33.099 61.4617L33.195 61.4309C34.7001 60.9511 36.2705 60.7077 37.8503 60.7094C39.1475 60.7056 40.4396 60.8709 41.6941 61.2009C42.9573 61.5278 44.1811 61.9914 45.3438 62.5833C45.3561 62.5748 45.3678 62.5672 45.382 62.5594Z" fill="#F18B41"/>
</g>
</svg>
